<?xml version="1.0" encoding="UTF-8" standalone="no"?>
<!-- Created with Inkscape (http://www.inkscape.org/) -->

<svg
   xmlns:dc="http://purl.org/dc/elements/1.1/"
   xmlns:cc="http://creativecommons.org/ns#"
   xmlns:rdf="http://www.w3.org/1999/02/22-rdf-syntax-ns#"
   xmlns:svg="http://www.w3.org/2000/svg"
   xmlns="http://www.w3.org/2000/svg"
   xmlns:sodipodi="http://sodipodi.sourceforge.net/DTD/sodipodi-0.dtd"
   xmlns:inkscape="http://www.inkscape.org/namespaces/inkscape"
   width="210mm"
   height="297mm"
   viewBox="0 0 210 297"
   version="1.1"
   id="svg8"
   inkscape:version="0.92.3 (2405546, 2018-03-11)"
   sodipodi:docname="column_xsec.svg">
  <defs
     id="defs2">
    <marker
       inkscape:isstock="true"
       style="overflow:visible;"
       id="marker1260"
       refX="0.0"
       refY="0.0"
       orient="auto"
       inkscape:stockid="Arrow1Lend">
      <path
         transform="scale(0.8) rotate(180) translate(12.5,0)"
         style="fill-rule:evenodd;stroke:#000000;stroke-width:1pt;stroke-opacity:1;fill:#000000;fill-opacity:1"
         d="M 0.0,0.0 L 5.0,-5.0 L -12.5,0.0 L 5.0,5.0 L 0.0,0.0 z "
         id="path1258" />
    </marker>
    <marker
       inkscape:stockid="Arrow1Lend"
       orient="auto"
       refY="0.0"
       refX="0.0"
       id="Arrow1Lend"
       style="overflow:visible;"
       inkscape:isstock="true"
       inkscape:collect="always">
      <path
         id="path887"
         d="M 0.0,0.0 L 5.0,-5.0 L -12.5,0.0 L 5.0,5.0 L 0.0,0.0 z "
         style="fill-rule:evenodd;stroke:#000000;stroke-width:1pt;stroke-opacity:1;fill:#000000;fill-opacity:1"
         transform="scale(0.8) rotate(180) translate(12.5,0)" />
    </marker>
    <marker
       inkscape:stockid="Arrow1Lstart"
       orient="auto"
       refY="0.0"
       refX="0.0"
       id="Arrow1Lstart"
       style="overflow:visible"
       inkscape:isstock="true">
      <path
         id="path884"
         d="M 0.0,0.0 L 5.0,-5.0 L -12.5,0.0 L 5.0,5.0 L 0.0,0.0 z "
         style="fill-rule:evenodd;stroke:#000000;stroke-width:1pt;stroke-opacity:1;fill:#000000;fill-opacity:1"
         transform="scale(0.8) translate(12.5,0)" />
    </marker>
    <inkscape:perspective
       sodipodi:type="inkscape:persp3d"
       inkscape:vp_x="0 : 148.5 : 1"
       inkscape:vp_y="0 : 1000 : 0"
       inkscape:vp_z="210 : 148.5 : 1"
       inkscape:persp3d-origin="105 : 99 : 1"
       id="perspective815" />
  </defs>
  <sodipodi:namedview
     id="base"
     pagecolor="#ffffff"
     bordercolor="#666666"
     borderopacity="1.0"
     inkscape:pageopacity="0.0"
     inkscape:pageshadow="2"
     inkscape:zoom="0.80024667"
     inkscape:cx="343.74577"
     inkscape:cy="621.74583"
     inkscape:document-units="mm"
     inkscape:current-layer="g1344"
     showgrid="false"
     showguides="true"
     inkscape:guide-bbox="true"
     inkscape:window-width="1853"
     inkscape:window-height="1025"
     inkscape:window-x="67"
     inkscape:window-y="27"
     inkscape:window-maximized="1">
    <sodipodi:guide
       position="165.20982,195.14558"
       orientation="0,1"
       id="guide853"
       inkscape:locked="false" />
    <sodipodi:guide
       position="165.20982,95.76163"
       orientation="0,1"
       id="guide855"
       inkscape:locked="false" />
    <sodipodi:guide
       position="16.688984,233.24555"
       orientation="0,1"
       id="guide878"
       inkscape:locked="false" />
    <sodipodi:guide
       position="16.688984,133.8616"
       orientation="0,1"
       id="guide880"
       inkscape:locked="false" />
    <sodipodi:guide
       position="174.87398,183.99175"
       orientation="1,0"
       id="guide1246"
       inkscape:locked="false" />
    <sodipodi:guide
       position="185.86205,163.18455"
       orientation="0,1"
       id="guide1248"
       inkscape:locked="false" />
  </sodipodi:namedview>
  <metadata
     id="metadata5">
    <rdf:RDF>
      <cc:Work
         rdf:about="">
        <dc:format>image/svg+xml</dc:format>
        <dc:type
           rdf:resource="http://purl.org/dc/dcmitype/StillImage" />
        <dc:title></dc:title>
      </cc:Work>
    </rdf:RDF>
  </metadata>
  <g
     inkscape:label="Layer 1"
     inkscape:groupmode="layer"
     id="layer1">
    <g
       id="g1344"
       inkscape:export-xdpi="300"
       inkscape:export-ydpi="300">
      <g
         id="g1606"
         inkscape:export-xdpi="300"
         inkscape:export-ydpi="300">
        <rect
           style="fill:none;fill-opacity:1;stroke:#000000;stroke-width:1;stroke-miterlimit:4;stroke-dasharray:none;stroke-dashoffset:0;stroke-opacity:1"
           id="rect831"
           width="99.383934"
           height="99.383934"
           x="16.688984"
           y="63.754459" />
        <rect
           y="101.85443"
           x="65.82589"
           height="99.383934"
           width="99.383934"
           id="rect833"
           style="fill:#ffffff;fill-opacity:1;stroke:#000000;stroke-width:1;stroke-miterlimit:4;stroke-dasharray:none;stroke-dashoffset:0;stroke-opacity:1" />
        <path
           style="fill:#ffffff;stroke:#000000;stroke-width:1;stroke-linecap:butt;stroke-linejoin:miter;stroke-opacity:1;stroke-miterlimit:4;stroke-dasharray:none;fill-opacity:1"
           d="m 16.688984,163.1384 49.136904,38.09997 V 101.85443 L 16.688984,63.75446 Z"
           id="path841"
           inkscape:connector-curvature="0" />
        <path
           inkscape:connector-curvature="0"
           id="path876"
           d="m 16.688984,125.13797 h 99.383936 l 49.1369,38.10018 H 65.825888 Z"
           style="opacity:1;fill:none;fill-opacity:1;stroke:#000000;stroke-width:1;stroke-linecap:butt;stroke-linejoin:miter;stroke-miterlimit:4;stroke-dasharray:4, 1;stroke-dashoffset:0;stroke-opacity:1" />
        <path
           style="fill:#ffffff;stroke:#000000;stroke-width:1;stroke-linecap:butt;stroke-linejoin:miter;stroke-opacity:1;stroke-miterlimit:4;stroke-dasharray:none;fill-opacity:1"
           d="m 16.688984,63.75446 h 99.383936 l 49.1369,38.09997 H 65.825888 Z"
           id="path843"
           inkscape:connector-curvature="0" />
        <flowRoot
           xml:space="preserve"
           id="flowRoot845"
           style="font-style:italic;font-variant:normal;font-weight:normal;font-stretch:normal;font-size:133.33332825px;line-height:1.25;font-family:sans-serif;-inkscape-font-specification:'sans-serif Italic';letter-spacing:0px;word-spacing:0px;fill:#ffffff;fill-opacity:1;stroke:none"
           transform="matrix(0.26458333,0,0,0.26458333,287.2619,-3.7797619)"><flowRegion
             id="flowRegion847"
             style="font-style:italic;font-variant:normal;font-weight:normal;font-stretch:normal;font-size:133.33332825px;font-family:sans-serif;-inkscape-font-specification:'sans-serif Italic';fill:#ffffff;fill-opacity:1"><rect
               id="rect849"
               width="354.28571"
               height="317.14285"
               x="-797.14288"
               y="253.94826"
               style="font-style:italic;font-variant:normal;font-weight:normal;font-stretch:normal;font-size:133.33332825px;font-family:sans-serif;-inkscape-font-specification:'sans-serif Italic';fill:#ffffff;fill-opacity:1" /></flowRegion><flowPara
             id="flowPara851">A</flowPara></flowRoot>        <path
           style="fill:none;stroke:#000000;stroke-width:0.5;stroke-linecap:butt;stroke-linejoin:miter;stroke-opacity:1;stroke-miterlimit:4;stroke-dasharray:none;marker-start:url(#Arrow1Lstart);marker-end:url(#Arrow1Lend)"
           d="M 0.46757748,63.754449 -0.23378875,163.1384"
           id="path882"
           inkscape:connector-curvature="0" />
        <flowRoot
           xml:space="preserve"
           id="flowRoot845-8"
           style="font-style:italic;font-variant:normal;font-weight:normal;font-stretch:normal;font-size:133.33332825px;line-height:1.25;font-family:sans-serif;-inkscape-font-specification:'sans-serif Italic';letter-spacing:0px;word-spacing:0px;fill:#000000;fill-opacity:1;stroke:none"
           transform="matrix(0.26458333,0,0,0.26458333,181.8267,32.163435)"><flowRegion
             id="flowRegion847-6"
             style="font-style:italic;font-variant:normal;font-weight:normal;font-stretch:normal;font-size:133.33332825px;font-family:sans-serif;-inkscape-font-specification:'sans-serif Italic'"><rect
               id="rect849-0"
               width="354.28571"
               height="317.14285"
               x="-797.14288"
               y="253.94826"
               style="font-style:italic;font-variant:normal;font-weight:normal;font-stretch:normal;font-size:133.33332825px;font-family:sans-serif;-inkscape-font-specification:'sans-serif Italic'" /></flowRegion><flowPara
             id="flowPara851-4">H</flowPara></flowRoot>        <path
           style="opacity:1;fill:#ff0000;fill-opacity:1;stroke:none;stroke-width:1.66981614;stroke-miterlimit:4;stroke-dasharray:none;stroke-dashoffset:0;stroke-opacity:1"
           d="m 155.97843,685.64249 -90.128326,-69.89043 -0.226308,-69.1475 -0.226307,-69.14751 2.767318,2.32855 c 2.663899,2.24153 2.831955,2.27005 4.496864,0.76332 1.7088,-1.54644 1.701576,-1.58927 -0.602159,-3.57086 l -2.331705,-2.00565 h 4.467328 c 4.176077,0 4.467329,-0.14402 4.467329,-2.20903 0,-2.15993 -0.147269,-2.20903 -6.627083,-2.20903 h -6.627082 v -112.2687 c 0,-109.33416 0.04302,-112.23852 1.645891,-111.11409 0.90524,0.63504 41.65783,32.16937 90.56132,70.07628 l 88.91542,68.92166 0.009,42.19243 0.009,42.19242 h -7.06889 c -6.95107,0 -7.06888,0.0369 -7.06888,2.20903 0,2.17221 0.11781,2.20903 7.06888,2.20903 h 7.06889 v 68.54002 68.54003 l -2.56633,-1.8274 c -3.13317,-2.23101 -4.13494,-2.28832 -4.91245,-0.28107 -0.43939,1.13432 0.48008,2.48805 3.45092,5.08077 l 4.0499,3.53444 -0.23192,68.48686 -0.23192,68.48686 -90.12833,-69.89043 z m 80.82575,-77.65691 c 0.59144,-0.71264 0.93835,-1.67219 0.7709,-2.13234 -0.36029,-0.99013 -10.49435,-8.94251 -11.39583,-8.94251 -0.34154,0 -1.13253,0.61639 -1.75777,1.36977 -1.31196,1.5808 -1.1837,1.74432 5.78027,7.36921 5.02351,4.05754 5.13951,4.09858 6.60243,2.33587 z m -13.87134,-13.83543 c -0.37597,-0.37492 -3.24447,-2.66298 -6.37444,-5.08457 -5.15572,-3.98887 -5.79701,-4.26325 -6.81988,-2.91783 -0.62097,0.81679 -1.14167,1.73568 -1.15714,2.04199 -0.0155,0.30631 2.61735,2.59918 5.85067,5.09527 5.59103,4.31622 5.95966,4.46514 7.53157,3.04258 0.90905,-0.82267 1.34519,-1.80252 0.96922,-2.17744 z m -15.78848,-9.51769 c 1.45695,-1.60992 1.26889,-1.86814 -4.84385,-6.65103 -6.25975,-4.89791 -6.37999,-4.94705 -7.65426,-3.12778 -0.71204,1.01657 -1.10287,2.04005 -0.86851,2.27441 0.44891,0.4489 11.62239,9.15785 11.76686,9.17144 0.0462,0.004 0.76606,-0.74582 1.59976,-1.66704 z M 193.4828,571.04049 c -0.21599,-0.16203 -3.09598,-2.40961 -6.39998,-4.99462 -5.70767,-4.46561 -6.06975,-4.6174 -7.25988,-3.04347 -0.68893,0.91109 -1.16666,1.92741 -1.06162,2.25849 0.10505,0.33108 2.77556,2.57924 5.93447,4.99591 5.63686,4.31239 5.77536,4.36318 7.4616,2.73613 0.94497,-0.91181 1.54141,-1.7904 1.32541,-1.95244 z m -14.97229,-11.18035 c 0,-0.30175 -2.81661,-2.65642 -6.25912,-5.23262 -5.88833,-4.40649 -6.3316,-4.58835 -7.48259,-3.06975 -0.67291,0.88782 -1.21357,1.81303 -1.20146,2.05602 0.0121,0.24299 2.68344,2.48742 5.93628,4.98761 5.43581,4.17806 6.03934,4.43503 7.46057,3.17659 0.85048,-0.75306 1.54632,-1.61609 1.54632,-1.91785 z m -16.08172,-9.95752 c 0.58318,-0.58318 1.06033,-1.30048 1.06033,-1.59399 0,-0.68993 -12.33806,-10.08119 -12.64118,-9.622 -0.12619,0.19117 -0.73779,1.01419 -1.35911,1.82895 -0.98648,1.29359 -0.42274,2.04585 4.44718,5.93446 5.95242,4.75297 6.83401,5.11135 8.49278,3.45258 z M 147.4074,538.41568 c 0.58318,-0.58318 1.06033,-1.33083 1.06033,-1.66143 0,-0.67707 -11.41318,-9.64879 -12.2745,-9.64879 -0.30501,0 -1.03464,0.76872 -1.6214,1.70829 -0.95203,1.52444 -0.47567,2.18367 4.42641,6.12567 5.90618,4.74947 6.77627,5.10916 8.40916,3.47626 z m -15.02139,-11.48694 c 0.58319,-0.58318 1.06034,-1.34214 1.06034,-1.68657 0,-0.76549 -11.17347,-9.62365 -12.13904,-9.62365 -0.37951,0 -1.1616,0.7551 -1.73796,1.67799 -0.93097,1.49073 -0.39281,2.18105 4.82194,6.18528 6.45565,4.95708 6.47587,4.9658 7.99472,3.44695 z m -14.87678,-11.71333 c 0.58733,-0.70768 0.81747,-1.69186 0.51142,-2.18706 -0.78957,-1.27755 -10.79799,-8.89678 -11.68658,-8.89678 -0.406,0 -1.19198,0.72666 -1.74663,1.61479 -0.87908,1.40763 -0.25458,2.19781 4.86822,6.15967 3.23216,2.49968 6.12619,4.5564 6.43118,4.57048 0.30498,0.0141 1.03505,-0.5534 1.62239,-1.2611 z m -15.16599,-11.26056 c 1.81294,-1.81294 1.19072,-2.78453 -4.555267,-7.11307 -4.870377,-3.66892 -7.638566,-5.05603 -7.638566,-3.82761 0,0.20324 -0.228534,0.96508 -0.507855,1.69299 -0.340695,0.88783 1.331629,2.79222 5.080763,5.78582 6.231235,4.97548 6.146025,4.93677 7.620925,3.46187 z M 87.473918,492.23253 c 0.591438,-0.71264 0.938344,-1.67219 0.770902,-2.13234 -0.484265,-1.33081 -10.652334,-8.9425 -11.945831,-8.9425 -1.10132,0 -1.30731,0.36852 -1.524414,2.7272 -0.08159,0.88643 9.817083,9.4593 11.069486,9.58687 0.304984,0.031 1.038419,-0.52659 1.629857,-1.23923 z m 9.744377,-19.46915 c 0,-2.19266 -0.05891,-2.20903 -7.952499,-2.20903 -7.893591,0 -7.952499,0.0163 -7.952499,2.20903 0,2.19267 0.05891,2.20903 7.952499,2.20903 7.893592,0 7.952499,-0.0164 7.952499,-2.20903 z m 19.439445,0 c 0,-2.19266 -0.0589,-2.20903 -7.9525,-2.20903 -7.89359,0 -7.9525,0.0163 -7.9525,2.20903 0,2.19267 0.0589,2.20903 7.9525,2.20903 7.89359,0 7.9525,-0.0164 7.9525,-2.20903 z m 18.55583,0 c 0,-2.19266 -0.0589,-2.20903 -7.9525,-2.20903 -7.89359,0 -7.9525,0.0163 -7.9525,2.20903 0,2.19267 0.0589,2.20903 7.9525,2.20903 7.89359,0 7.9525,-0.0164 7.9525,-2.20903 z m 18.55583,0 c 0,-2.19266 -0.0589,-2.20903 -7.9525,-2.20903 -7.89359,0 -7.9525,0.0163 -7.9525,2.20903 0,2.19267 0.0589,2.20903 7.9525,2.20903 7.89359,0 7.9525,-0.0164 7.9525,-2.20903 z m 19.43944,0 c 0,-2.19266 -0.0589,-2.20903 -7.9525,-2.20903 -7.89358,0 -7.95249,0.0163 -7.95249,2.20903 0,2.19267 0.0589,2.20903 7.95249,2.20903 7.89359,0 7.9525,-0.0164 7.9525,-2.20903 z m 18.55583,0 c 0,-2.19266 -0.0589,-2.20903 -7.95249,-2.20903 -7.89359,0 -7.9525,0.0163 -7.9525,2.20903 0,2.19267 0.0589,2.20903 7.9525,2.20903 7.89358,0 7.95249,-0.0164 7.95249,-2.20903 z m 19.43945,0 c 0,-2.19266 -0.0589,-2.20903 -7.9525,-2.20903 -7.89359,0 -7.9525,0.0163 -7.9525,2.20903 0,2.19267 0.0589,2.20903 7.9525,2.20903 7.89359,0 7.9525,-0.0164 7.9525,-2.20903 z m 18.55583,0 c 0,-2.19266 -0.0589,-2.20903 -7.9525,-2.20903 -7.89359,0 -7.9525,0.0163 -7.9525,2.20903 0,2.19267 0.0589,2.20903 7.9525,2.20903 7.89359,0 7.9525,-0.0164 7.9525,-2.20903 z"
           id="path1236"
           inkscape:connector-curvature="0"
           transform="scale(0.26458333)" />
        <path
           style="opacity:1;fill:#ff0000;fill-opacity:1;stroke:none;stroke-width:1.66981614;stroke-miterlimit:4;stroke-dasharray:none;stroke-dashoffset:0;stroke-opacity:1"
           d="M 162.16371,314.90784 C 114.05109,277.50621 73.692152,246.1438 72.477187,245.21359 c -2.178169,-1.66766 0.360563,-1.69167 181.733393,-1.71928 l 183.94241,-0.028 89.0934,69.03568 c 49.00136,37.96963 89.47113,69.382 89.93281,69.80527 0.47693,0.43725 -78.70148,0.73374 -183.34928,0.68656 l -184.18872,-0.0831 -87.47749,-68.00296 z m 140.41325,30.60684 6.98801,-12.80364 h 21.42862 21.42862 l 1.02396,6.40618 c 0.56317,3.52339 1.49581,9.18955 2.07253,12.59145 l 1.04859,6.18528 7.39809,0.25846 c 6.74218,0.23555 7.36226,0.11804 6.99389,-1.32541 -0.22231,-0.87114 -4.34876,-22.95418 -9.16989,-49.07344 l -8.76569,-47.48956 -7.9525,0.0131 -7.9525,0.0131 -27.83375,48.24668 c -15.30856,26.53567 -27.96629,48.59593 -28.12828,49.02279 -0.162,0.42687 3.019,0.77219 7.06889,0.7674 l 7.36342,-0.009 6.98799,-12.80365 z"
           id="path1242"
           inkscape:connector-curvature="0"
           transform="scale(0.26458333)" />
        <path
           style="opacity:1;fill:#ff0000;fill-opacity:1;stroke:none;stroke-width:0.44180551;stroke-miterlimit:4;stroke-dasharray:none;stroke-dashoffset:0;stroke-opacity:1"
           d="m 83.740915,84.789686 c 0.272976,-0.703559 6.597764,-11.722372 6.728632,-11.722372 0.131413,0 2.145948,11.147372 2.123059,11.747883 -0.0037,0.09644 -2.014344,0.175342 -4.468154,0.175342 -2.453806,0 -4.4264,-0.09038 -4.383537,-0.200853 z"
           id="path1244"
           inkscape:connector-curvature="0" />
        <path
           style="fill:none;stroke:#000000;stroke-width:0.5;stroke-linecap:butt;stroke-linejoin:miter;stroke-miterlimit:4;stroke-dasharray:none;stroke-opacity:1;marker-end:url(#marker1260)"
           d="M 174.87398,101.85442 V 163.1384"
           id="path1250"
           inkscape:connector-curvature="0" />
        <flowRoot
           xml:space="preserve"
           id="flowRoot845-8-7"
           style="font-style:italic;font-variant:normal;font-weight:normal;font-stretch:normal;font-size:133.33332825px;line-height:1.25;font-family:sans-serif;-inkscape-font-specification:'sans-serif Italic';letter-spacing:0px;word-spacing:0px;fill:#000000;fill-opacity:1;stroke:none"
           transform="matrix(0.26458333,0,0,0.26458333,391.45789,29.100299)"><flowRegion
             id="flowRegion847-6-6"
             style="font-style:italic;font-variant:normal;font-weight:normal;font-stretch:normal;font-size:133.33332825px;font-family:sans-serif;-inkscape-font-specification:'sans-serif Italic'"><rect
               id="rect849-0-4"
               width="354.28571"
               height="317.14285"
               x="-797.14288"
               y="253.94826"
               style="font-style:italic;font-variant:normal;font-weight:normal;font-stretch:normal;font-size:133.33332825px;font-family:sans-serif;-inkscape-font-specification:'sans-serif Italic'" /></flowRegion><flowPara
             id="flowPara851-4-3">z</flowPara></flowRoot>        <path
           transform="scale(0.26458333)"
           inkscape:connector-curvature="0"
           id="path1365"
           d="M 251.30157,616.7381 V 475.53164 h 8.10885 c 7.27578,0 8.10885,-0.25677 8.10885,-2.49923 0,-2.2429 -0.83307,-2.49923 -8.12249,-2.49923 h -8.1225 v -41.23729 -41.23728 h 185.56779 185.56778 v 111.73577 111.73577 l -3.74885,1.6594 c -2.11201,0.93488 -3.74884,2.61745 -3.74884,3.85359 0,1.6049 1.0068,2.19418 3.74884,2.19418 h 3.74885 v 69.35362 69.35362 H 436.85571 251.30157 Z m 19.96655,-0.0596 c 0,-2.34509 -0.65139,-2.52777 -7.79754,-2.18682 -6.25509,0.29844 -7.87995,0.80461 -8.21413,2.55886 -0.36254,1.90315 0.64895,2.18682 7.79755,2.18682 7.44485,0 8.21412,-0.23963 8.21412,-2.55886 z m 19.99383,0.0596 c 0,-2.2429 -0.83307,-2.49923 -8.12249,-2.49923 -7.28942,0 -8.1225,0.25633 -8.1225,2.49923 0,2.24289 0.83308,2.49922 8.1225,2.49922 7.28942,0 8.12249,-0.25633 8.12249,-2.49922 z m 18.74422,0 c 0,-2.2429 -0.83307,-2.49923 -8.12249,-2.49923 -7.28942,0 -8.1225,0.25633 -8.1225,2.49923 0,2.24289 0.83308,2.49922 8.1225,2.49922 7.28942,0 8.12249,-0.25633 8.12249,-2.49922 z m 18.74422,0 c 0,-2.2429 -0.83307,-2.49923 -8.12249,-2.49923 -7.28942,0 -8.1225,0.25633 -8.1225,2.49923 0,2.24289 0.83308,2.49922 8.1225,2.49922 7.28942,0 8.12249,-0.25633 8.12249,-2.49922 z m 18.74423,0 c 0,-2.2429 -0.83308,-2.49923 -8.1225,-2.49923 -7.28942,0 -8.1225,0.25633 -8.1225,2.49923 0,2.24289 0.83308,2.49922 8.1225,2.49922 7.28942,0 8.1225,-0.25633 8.1225,-2.49922 z m 18.74422,0 c 0,-2.2429 -0.83308,-2.49923 -8.1225,-2.49923 -7.28942,0 -8.1225,0.25633 -8.1225,2.49923 0,2.24289 0.83308,2.49922 8.1225,2.49922 7.28942,0 8.1225,-0.25633 8.1225,-2.49922 z m 18.74422,0 c 0,-2.2429 -0.83308,-2.49923 -8.1225,-2.49923 -7.28942,0 -8.12249,0.25633 -8.12249,2.49923 0,2.24289 0.83307,2.49922 8.12249,2.49922 7.28942,0 8.1225,-0.25633 8.1225,-2.49922 z m 18.74422,0 c 0,-2.2429 -0.83308,-2.49923 -8.1225,-2.49923 -7.28941,0 -8.12249,0.25633 -8.12249,2.49923 0,2.24289 0.83308,2.49922 8.12249,2.49922 7.28942,0 8.1225,-0.25633 8.1225,-2.49922 z m 18.74422,0 c 0,-2.2429 -0.83308,-2.49923 -8.1225,-2.49923 -7.28941,0 -8.12249,0.25633 -8.12249,2.49923 0,2.24289 0.83308,2.49922 8.12249,2.49922 7.28942,0 8.1225,-0.25633 8.1225,-2.49922 z m 19.7605,0.3124 c -0.33417,-1.75425 -1.95903,-2.26042 -8.21411,-2.55886 -7.14616,-0.34095 -7.79755,-0.15827 -7.79755,2.18682 0,2.31923 0.76928,2.55886 8.21412,2.55886 7.14859,0 8.16008,-0.28367 7.79754,-2.18682 z m 18.97755,-0.3124 c 0,-2.2429 -0.83308,-2.49923 -8.12249,-2.49923 -7.28942,0 -8.1225,0.25633 -8.1225,2.49923 0,2.24289 0.83308,2.49922 8.1225,2.49922 7.28941,0 8.12249,-0.25633 8.12249,-2.49922 z m 18.74422,0 c 0,-2.2429 -0.83308,-2.49923 -8.12249,-2.49923 -7.28942,0 -8.1225,0.25633 -8.1225,2.49923 0,2.24289 0.83308,2.49922 8.1225,2.49922 7.28941,0 8.12249,-0.25633 8.12249,-2.49922 z m 18.74422,0 c 0,-2.2429 -0.83308,-2.49923 -8.12249,-2.49923 -7.28942,0 -8.1225,0.25633 -8.1225,2.49923 0,2.24289 0.83308,2.49922 8.1225,2.49922 7.28941,0 8.12249,-0.25633 8.12249,-2.49922 z m 18.74422,0 c 0,-2.2429 -0.83308,-2.49923 -8.12249,-2.49923 -7.28942,0 -8.1225,0.25633 -8.1225,2.49923 0,2.24289 0.83308,2.49922 8.1225,2.49922 7.28941,0 8.12249,-0.25633 8.12249,-2.49922 z m 18.74422,0 c 0,-2.2429 -0.83308,-2.49923 -8.12249,-2.49923 -7.28942,0 -8.1225,0.25633 -8.1225,2.49923 0,2.24289 0.83308,2.49922 8.1225,2.49922 7.28941,0 8.12249,-0.25633 8.12249,-2.49922 z m 18.74422,0 c 0,-2.2429 -0.83308,-2.49923 -8.12249,-2.49923 -7.28942,0 -8.1225,0.25633 -8.1225,2.49923 0,2.24289 0.83308,2.49922 8.1225,2.49922 7.28941,0 8.12249,-0.25633 8.12249,-2.49922 z m 18.74422,0 c 0,-2.2429 -0.83308,-2.49923 -8.12249,-2.49923 -7.28942,0 -8.1225,0.25633 -8.1225,2.49923 0,2.24289 0.83308,2.49922 8.1225,2.49922 7.28941,0 8.12249,-0.25633 8.12249,-2.49922 z m 19.76051,0.3124 c -0.33417,-1.75425 -1.95903,-2.26042 -8.21412,-2.55886 -7.14615,-0.34095 -7.79754,-0.15827 -7.79754,2.18682 0,2.31923 0.76927,2.55886 8.21412,2.55886 7.14859,0 8.16008,-0.28367 7.79754,-2.18682 z m 18.97755,-0.3124 c 0,-2.2429 -0.83308,-2.49923 -8.1225,-2.49923 -7.28941,0 -8.12249,0.25633 -8.12249,2.49923 0,2.24289 0.83308,2.49922 8.12249,2.49922 7.28942,0 8.1225,-0.25633 8.1225,-2.49922 z m 1.06503,-11.48714 c -2.99127,-2.59647 -6.23557,-4.58861 -7.20955,-4.42696 -3.66539,0.60834 -2.54926,3.34433 3.13481,7.68445 4.76691,3.6398 6.21603,4.19998 7.69332,2.97395 1.53822,-1.27662 0.97779,-2.24171 -3.61858,-6.23144 z m -9.88671,-7.61971 c -0.30274,-0.23217 -3.26498,-2.59825 -6.58277,-5.25795 -4.89284,-3.92236 -6.24629,-4.49737 -7.16497,-3.04407 -1.5642,2.47449 -1.29901,2.8884 5.06768,7.9094 4.89924,3.86372 5.84682,4.19841 7.42331,2.62192 0.99394,-0.99394 1.55948,-1.99712 1.25675,-2.2293 z m -15.28179,-10.42459 c 0.60834,-1.82726 -11.6814,-10.8843 -13.3608,-9.84636 -2.38227,1.47232 -1.19011,3.75619 4.08383,7.82357 5.23643,4.03847 8.37786,4.72344 9.27697,2.02279 z m -15.44041,-11.05994 c 0.46317,-1.20697 -1.29606,-3.38595 -5.04446,-6.24807 -6.26196,-4.78135 -7.29211,-5.13237 -8.64381,-2.94528 -0.53503,0.86571 1.32256,3.3671 4.6123,6.21079 5.99172,5.17931 7.98202,5.83336 9.07597,2.98256 z m -14.26393,-13.46826 c -0.30274,-0.21213 -3.1619,-2.46365 -6.3537,-5.00338 -5.07481,-4.03804 -6.00146,-4.37886 -7.38225,-2.71512 -1.77647,2.14051 -1.49874,2.52674 5.68783,7.91021 4.32622,3.24076 5.24055,3.50559 6.79851,1.96917 0.99002,-0.97634 1.55234,-1.94874 1.24961,-2.16088 z m -14.921,-10.81656 c 0,-0.46191 -2.85922,-3.02029 -6.35381,-5.68531 -5.13701,-3.91753 -6.56922,-4.50516 -7.47856,-3.06842 -1.62415,2.56616 -1.60804,2.59148 4.83026,7.59299 4.25872,3.30833 6.30839,4.21287 7.44009,3.28343 0.85911,-0.70558 1.56202,-1.66078 1.56202,-2.12269 z m -15.49236,-10.30751 c 0.8568,-1.38633 -2.49945,-4.80432 -9.29417,-9.46512 -2.49638,-1.71237 -3.08577,-1.74507 -4.07676,-0.22617 -0.85553,1.3113 0.23434,3.00012 4.16789,6.4583 5.58302,4.9083 7.70659,5.65431 9.20304,3.23299 z m -14.829,-11.92229 c 0.68013,-2.04038 -10.56222,-10.76706 -12.77635,-9.91743 -3.04656,1.16908 -2.24431,2.69071 3.97209,7.53387 5.75664,4.48495 7.90951,5.0678 8.80426,2.38356 z m -15.38231,-11.19772 c 0.43972,-1.14586 0.35929,-2.45162 -0.17871,-2.90168 -8.68748,-7.26761 -11.35606,-8.68578 -12.88267,-6.84631 -0.86492,1.04217 -1.35189,2.11418 -1.08212,2.38225 1.78291,1.77173 11.88599,9.33247 12.54052,9.38484 0.44194,0.0354 1.16328,-0.87324 1.60298,-2.0191 z M 483.3251,506.0319 c 0.24991,-0.7507 -2.18086,-3.41801 -5.40171,-5.92735 -4.78048,-3.72443 -6.19313,-4.28271 -7.69112,-3.03949 -1.55813,1.29313 -1.01026,2.23713 3.63083,6.25601 5.3034,4.59239 8.52806,5.51624 9.462,2.71083 z m -15.10084,-10.73591 c 0.55901,-0.90449 -1.23279,-3.33044 -4.61231,-6.24469 -5.97847,-5.15541 -7.98851,-5.80059 -9.09426,-2.91905 -0.46317,1.20698 1.29606,3.38596 5.04446,6.24807 6.27877,4.79421 7.29061,5.13479 8.66211,2.91567 z m -14.84174,-12.37022 c 0.41301,-2.47553 -10.3914,-10.36252 -12.88488,-9.40568 -2.78408,1.06835 -1.98077,2.42234 4.46692,7.52894 5.73817,4.54467 7.89269,5.02501 8.41796,1.87674 z M 286.2635,473.03241 c 0,-2.2429 -0.83308,-2.49923 -8.1225,-2.49923 -7.28942,0 -8.1225,0.25633 -8.1225,2.49923 0,2.24289 0.83308,2.49923 8.1225,2.49923 7.28942,0 8.1225,-0.25634 8.1225,-2.49923 z m 18.74422,0 c 0,-2.2429 -0.83308,-2.49923 -8.1225,-2.49923 -7.28942,0 -8.1225,0.25633 -8.1225,2.49923 0,2.24289 0.83308,2.49923 8.1225,2.49923 7.28942,0 8.1225,-0.25634 8.1225,-2.49923 z m 19.99383,0 c 0,-2.2429 -0.83308,-2.49923 -8.12249,-2.49923 -7.28942,0 -8.1225,0.25633 -8.1225,2.49923 0,2.24289 0.83308,2.49923 8.1225,2.49923 7.28941,0 8.12249,-0.25634 8.12249,-2.49923 z m 18.74422,0 c 0,-2.2429 -0.83308,-2.49923 -8.12249,-2.49923 -7.28942,0 -8.1225,0.25633 -8.1225,2.49923 0,2.24289 0.83308,2.49923 8.1225,2.49923 7.28941,0 8.12249,-0.25634 8.12249,-2.49923 z m 18.74422,0 c 0,-2.2429 -0.83308,-2.49923 -8.12249,-2.49923 -7.28942,0 -8.1225,0.25633 -8.1225,2.49923 0,2.24289 0.83308,2.49923 8.1225,2.49923 7.28941,0 8.12249,-0.25634 8.12249,-2.49923 z m 18.74422,0 c 0,-2.2429 -0.83308,-2.49923 -8.12249,-2.49923 -7.28942,0 -8.1225,0.25633 -8.1225,2.49923 0,2.24289 0.83308,2.49923 8.1225,2.49923 7.28941,0 8.12249,-0.25634 8.12249,-2.49923 z m 18.74422,0 c 0,-2.2429 -0.83308,-2.49923 -8.12249,-2.49923 -7.28942,0 -8.1225,0.25633 -8.1225,2.49923 0,2.24289 0.83308,2.49923 8.1225,2.49923 7.28941,0 8.12249,-0.25634 8.12249,-2.49923 z m 18.74422,0 c 0,-2.2429 -0.83308,-2.49923 -8.12249,-2.49923 -7.28942,0 -8.1225,0.25633 -8.1225,2.49923 0,2.24289 0.83308,2.49923 8.1225,2.49923 7.28941,0 8.12249,-0.25634 8.12249,-2.49923 z m 18.74422,0 c 0,-2.2429 -0.83308,-2.49923 -8.12249,-2.49923 -7.28942,0 -8.1225,0.25633 -8.1225,2.49923 0,2.24289 0.83308,2.49923 8.1225,2.49923 7.28941,0 8.12249,-0.25634 8.12249,-2.49923 z"
           style="opacity:1;fill:#ff0000;fill-opacity:1;stroke:none;stroke-width:2.36147666;stroke-miterlimit:4;stroke-dasharray:none;stroke-dashoffset:0;stroke-opacity:1" />
      </g>
    </g>
  </g>
</svg>
