<?xml version="1.0" encoding="UTF-8" standalone="no"?>
<!-- Created with Inkscape (http://www.inkscape.org/) -->

<svg
   xmlns:dc="http://purl.org/dc/elements/1.1/"
   xmlns:cc="http://creativecommons.org/ns#"
   xmlns:rdf="http://www.w3.org/1999/02/22-rdf-syntax-ns#"
   xmlns:svg="http://www.w3.org/2000/svg"
   xmlns="http://www.w3.org/2000/svg"
   xmlns:sodipodi="http://sodipodi.sourceforge.net/DTD/sodipodi-0.dtd"
   xmlns:inkscape="http://www.inkscape.org/namespaces/inkscape"
   width="210mm"
   height="297mm"
   viewBox="0 0 210 297"
   version="1.1"
   id="svg8"
   inkscape:version="0.92.3 (2405546, 2018-03-11)"
   sodipodi:docname="column_energy.svg"
   inkscape:export-filename="/home/paul/Documents/Geneva/teaching/modeling_volcanic_processes/lecture4/column_energy.png"
   inkscape:export-xdpi="300"
   inkscape:export-ydpi="300">
  <defs
     id="defs2">
    <marker
       inkscape:isstock="true"
       style="overflow:visible;"
       id="marker1260"
       refX="0.0"
       refY="0.0"
       orient="auto"
       inkscape:stockid="Arrow1Lend">
      <path
         transform="scale(0.8) rotate(180) translate(12.5,0)"
         style="fill-rule:evenodd;stroke:#000000;stroke-width:1pt;stroke-opacity:1;fill:#000000;fill-opacity:1"
         d="M 0.0,0.0 L 5.0,-5.0 L -12.5,0.0 L 5.0,5.0 L 0.0,0.0 z "
         id="path1258" />
    </marker>
    <marker
       inkscape:stockid="Arrow1Lend"
       orient="auto"
       refY="0.0"
       refX="0.0"
       id="Arrow1Lend"
       style="overflow:visible;"
       inkscape:isstock="true"
       inkscape:collect="always">
      <path
         id="path887"
         d="M 0.0,0.0 L 5.0,-5.0 L -12.5,0.0 L 5.0,5.0 L 0.0,0.0 z "
         style="fill-rule:evenodd;stroke:#000000;stroke-width:1pt;stroke-opacity:1;fill:#000000;fill-opacity:1"
         transform="scale(0.8) rotate(180) translate(12.5,0)" />
    </marker>
    <marker
       inkscape:stockid="Arrow1Lstart"
       orient="auto"
       refY="0.0"
       refX="0.0"
       id="Arrow1Lstart"
       style="overflow:visible"
       inkscape:isstock="true">
      <path
         id="path884"
         d="M 0.0,0.0 L 5.0,-5.0 L -12.5,0.0 L 5.0,5.0 L 0.0,0.0 z "
         style="fill-rule:evenodd;stroke:#000000;stroke-width:1pt;stroke-opacity:1;fill:#000000;fill-opacity:1"
         transform="scale(0.8) translate(12.5,0)" />
    </marker>
    <inkscape:perspective
       sodipodi:type="inkscape:persp3d"
       inkscape:vp_x="0 : 148.5 : 1"
       inkscape:vp_y="0 : 1000 : 0"
       inkscape:vp_z="210 : 148.5 : 1"
       inkscape:persp3d-origin="105 : 99 : 1"
       id="perspective815" />
  </defs>
  <sodipodi:namedview
     id="base"
     pagecolor="#ffffff"
     bordercolor="#666666"
     borderopacity="1.0"
     inkscape:pageopacity="0.0"
     inkscape:pageshadow="2"
     inkscape:zoom="0.80024667"
     inkscape:cx="111.31744"
     inkscape:cy="621.74583"
     inkscape:document-units="mm"
     inkscape:current-layer="g1344"
     showgrid="false"
     showguides="true"
     inkscape:guide-bbox="true"
     inkscape:window-width="1853"
     inkscape:window-height="1025"
     inkscape:window-x="67"
     inkscape:window-y="27"
     inkscape:window-maximized="1">
    <sodipodi:guide
       position="165.20982,195.14558"
       orientation="0,1"
       id="guide853"
       inkscape:locked="false" />
    <sodipodi:guide
       position="165.20982,95.76163"
       orientation="0,1"
       id="guide855"
       inkscape:locked="false" />
    <sodipodi:guide
       position="16.688984,233.24555"
       orientation="0,1"
       id="guide878"
       inkscape:locked="false" />
    <sodipodi:guide
       position="16.688984,133.8616"
       orientation="0,1"
       id="guide880"
       inkscape:locked="false" />
    <sodipodi:guide
       position="174.87398,183.99175"
       orientation="1,0"
       id="guide1246"
       inkscape:locked="false" />
    <sodipodi:guide
       position="174.87398,157.04561"
       orientation="0,1"
       id="guide1248"
       inkscape:locked="false" />
  </sodipodi:namedview>
  <metadata
     id="metadata5">
    <rdf:RDF>
      <cc:Work
         rdf:about="">
        <dc:format>image/svg+xml</dc:format>
        <dc:type
           rdf:resource="http://purl.org/dc/dcmitype/StillImage" />
        <dc:title></dc:title>
      </cc:Work>
    </rdf:RDF>
  </metadata>
  <g
     inkscape:label="Layer 1"
     inkscape:groupmode="layer"
     id="layer1">
    <g
       id="g1344"
       inkscape:export-xdpi="300"
       inkscape:export-ydpi="300">
      <g
         id="g1579">
        <rect
           style="fill:none;fill-opacity:1;stroke:#000000;stroke-width:1;stroke-miterlimit:4;stroke-dasharray:none;stroke-dashoffset:0;stroke-opacity:1"
           id="rect831"
           width="99.383934"
           height="99.383934"
           x="16.688984"
           y="63.754459" />
        <rect
           y="101.85443"
           x="65.82589"
           height="99.383934"
           width="99.383934"
           id="rect833"
           style="fill:#ffffff;fill-opacity:1;stroke:#000000;stroke-width:1;stroke-miterlimit:4;stroke-dasharray:none;stroke-dashoffset:0;stroke-opacity:1" />
        <path
           style="fill:#ffffff;fill-opacity:1;stroke:#000000;stroke-width:1;stroke-linecap:butt;stroke-linejoin:miter;stroke-miterlimit:4;stroke-dasharray:none;stroke-opacity:1"
           d="m 16.688984,163.1384 49.136904,38.09997 V 101.85443 L 16.688984,63.75446 Z"
           id="path841"
           inkscape:connector-curvature="0" />
        <path
           inkscape:connector-curvature="0"
           id="path876"
           d="m 16.688984,125.13797 h 99.383936 l 49.1369,38.10018 H 65.825888 Z"
           style="opacity:1;fill:#c87d14;fill-opacity:1;stroke:#000000;stroke-width:1;stroke-linecap:butt;stroke-linejoin:miter;stroke-miterlimit:4;stroke-dasharray:4, 1;stroke-dashoffset:0;stroke-opacity:1" />
        <path
           style="fill:#ffffff;fill-opacity:1;stroke:#000000;stroke-width:1;stroke-linecap:butt;stroke-linejoin:miter;stroke-miterlimit:4;stroke-dasharray:none;stroke-opacity:1"
           d="m 16.688984,63.75446 h 99.383936 l 49.1369,38.09997 H 65.825888 Z"
           id="path843"
           inkscape:connector-curvature="0" />
        <flowRoot
           xml:space="preserve"
           id="flowRoot845"
           style="font-style:italic;font-variant:normal;font-weight:normal;font-stretch:normal;font-size:133.33332825px;line-height:1.25;font-family:sans-serif;-inkscape-font-specification:'sans-serif Italic';letter-spacing:0px;word-spacing:0px;fill:#ffffff;fill-opacity:1;stroke:none"
           transform="matrix(0.26458333,0,0,0.26458333,287.2619,-3.7797619)"><flowRegion
             id="flowRegion847"
             style="font-style:italic;font-variant:normal;font-weight:normal;font-stretch:normal;font-size:133.33332825px;font-family:sans-serif;-inkscape-font-specification:'sans-serif Italic';fill:#ffffff;fill-opacity:1"><rect
               id="rect849"
               width="354.28571"
               height="317.14285"
               x="-797.14288"
               y="253.94826"
               style="font-style:italic;font-variant:normal;font-weight:normal;font-stretch:normal;font-size:133.33332825px;font-family:sans-serif;-inkscape-font-specification:'sans-serif Italic';fill:#ffffff;fill-opacity:1" /></flowRegion><flowPara
             id="flowPara851">A</flowPara></flowRoot>        <path
           style="fill:none;stroke:#000000;stroke-width:0.5;stroke-linecap:butt;stroke-linejoin:miter;stroke-miterlimit:4;stroke-dasharray:none;stroke-opacity:1;marker-start:url(#Arrow1Lstart);marker-end:url(#Arrow1Lend)"
           d="M 0.46757748,63.754449 -0.23378875,163.1384"
           id="path882"
           inkscape:connector-curvature="0" />
        <flowRoot
           xml:space="preserve"
           id="flowRoot845-8"
           style="font-style:italic;font-variant:normal;font-weight:normal;font-stretch:normal;font-size:133.33332825px;line-height:1.25;font-family:sans-serif;-inkscape-font-specification:'sans-serif Italic';letter-spacing:0px;word-spacing:0px;fill:#000000;fill-opacity:1;stroke:none"
           transform="matrix(0.26458333,0,0,0.26458333,181.8267,32.163435)"><flowRegion
             id="flowRegion847-6"
             style="font-style:italic;font-variant:normal;font-weight:normal;font-stretch:normal;font-size:133.33332825px;font-family:sans-serif;-inkscape-font-specification:'sans-serif Italic'"><rect
               id="rect849-0"
               width="354.28571"
               height="317.14285"
               x="-797.14288"
               y="253.94826"
               style="font-style:italic;font-variant:normal;font-weight:normal;font-stretch:normal;font-size:133.33332825px;font-family:sans-serif;-inkscape-font-specification:'sans-serif Italic'" /></flowRegion><flowPara
             id="flowPara851-4">H</flowPara></flowRoot>        <path
           style="opacity:1;fill:#ff0000;fill-opacity:1;stroke:none;stroke-width:0.44180551;stroke-miterlimit:4;stroke-dasharray:none;stroke-dashoffset:0;stroke-opacity:1"
           d="m 41.269292,181.40957 -23.846452,-18.49184 -0.05988,-18.29528 -0.05988,-18.29527 0.732187,0.61609 c 0.704823,0.59307 0.749288,0.60062 1.189795,0.20196 0.45212,-0.40916 0.450209,-0.42049 -0.159321,-0.94479 l -0.616931,-0.53066 h 1.181981 c 1.10492,0 1.181981,-0.0381 1.181981,-0.58447 0,-0.57148 -0.03897,-0.58447 -1.753416,-0.58447 h -1.75341 V 94.79641 c 0,-28.927996 0.01138,-29.696441 0.435475,-29.398936 0.239511,0.168021 11.021967,8.511479 23.961015,18.541016 l 23.525538,18.23552 0.0024,11.16342 0.0024,11.16341 h -1.870311 c -1.839137,0 -1.870307,0.01 -1.870307,0.58447 0,0.57473 0.03117,0.58447 1.870307,0.58447 h 1.870311 v 18.13455 18.13455 l -0.679008,-0.4835 c -0.828985,-0.59029 -1.094036,-0.60545 -1.299753,-0.0744 -0.116255,0.30012 0.127022,0.6583 0.913056,1.34429 l 1.071536,0.93515 -0.06136,18.12048 -0.06136,18.12049 -23.846454,-18.49185 z m 21.385147,-20.54672 c 0.156485,-0.18855 0.248271,-0.44243 0.203967,-0.56418 -0.09533,-0.26197 -2.77663,-2.36604 -3.015147,-2.36604 -0.09037,0 -0.299648,0.16309 -0.465076,0.36242 -0.347123,0.41825 -0.313188,0.46151 1.529363,1.94977 1.329137,1.07355 1.359828,1.08441 1.746893,0.61803 z m -3.670126,-3.66062 c -0.09947,-0.0992 -0.858433,-0.70458 -1.68657,-1.3453 -1.364118,-1.05539 -1.533793,-1.12798 -1.804427,-0.77201 -0.164298,0.21611 -0.302067,0.45924 -0.30616,0.54028 -0.0041,0.081 0.692507,0.6877 1.54799,1.34812 1.479293,1.142 1.576827,1.18141 1.992728,0.80502 0.240519,-0.21767 0.355915,-0.47692 0.256439,-0.57611 z M 54.806945,154.684 c 0.385484,-0.42595 0.335727,-0.49428 -1.281602,-1.75975 -1.656226,-1.2959 -1.688039,-1.30891 -2.02519,-0.82756 -0.188394,0.26897 -0.291801,0.53977 -0.229793,0.60177 0.118774,0.11878 3.07509,2.42302 3.113315,2.42661 0.01222,0.001 0.202686,-0.19733 0.42327,-0.44107 z m -3.614621,-3.59621 c -0.05715,-0.0429 -0.819145,-0.63754 -1.693328,-1.32149 -1.510155,-1.18152 -1.605955,-1.22169 -1.920844,-0.80525 -0.182279,0.24106 -0.308679,0.50996 -0.280887,0.59756 0.02779,0.0876 0.734367,0.68242 1.570162,1.32183 1.491419,1.14099 1.528064,1.15443 1.974215,0.72394 0.250023,-0.24125 0.407832,-0.47371 0.350682,-0.51659 z m -3.961419,-2.95813 c 0,-0.0798 -0.745228,-0.70284 -1.656059,-1.38446 -1.557954,-1.16589 -1.675235,-1.214 -1.979768,-0.81221 -0.178041,0.2349 -0.321091,0.4797 -0.317887,0.54399 0.0032,0.0643 0.709994,0.65813 1.570641,1.31964 1.438225,1.10544 1.597909,1.17343 1.973943,0.84047 0.225023,-0.19925 0.40913,-0.42759 0.40913,-0.50743 z m -4.254955,-2.63459 c 0.1543,-0.1543 0.280546,-0.34409 0.280546,-0.42175 0,-0.18254 -3.264445,-2.66731 -3.344646,-2.54582 -0.03339,0.0506 -0.195207,0.26834 -0.359598,0.48391 -0.261006,0.34226 -0.11185,0.5413 1.17665,1.57016 1.574911,1.25756 1.808165,1.35238 2.247048,0.9135 z m -3.974409,-3.03926 c 0.154299,-0.1543 0.280545,-0.35211 0.280545,-0.43958 0,-0.17914 -3.019737,-2.55291 -3.247628,-2.55291 -0.0807,0 -0.273748,0.20339 -0.428995,0.45198 -0.251891,0.40334 -0.125854,0.57777 1.171154,1.62075 1.562677,1.25663 1.792888,1.3518 2.224924,0.91976 z m -3.97441,-3.03925 c 0.154303,-0.1543 0.280549,-0.35511 0.280549,-0.44624 0,-0.20253 -2.956314,-2.54625 -3.211788,-2.54625 -0.100412,0 -0.30734,0.19978 -0.459835,0.44396 -0.246319,0.39443 -0.103931,0.57707 1.275805,1.63653 1.708057,1.31156 1.713407,1.31386 2.115269,0.912 z m -3.936148,-3.09915 c 0.155398,-0.18724 0.216289,-0.44764 0.135314,-0.57866 -0.208907,-0.33802 -2.856969,-2.35394 -3.092075,-2.35394 -0.10742,0 -0.315378,0.19226 -0.462129,0.42725 -0.23259,0.37243 -0.06736,0.5815 1.28805,1.62974 0.855176,0.66138 1.620888,1.20555 1.701583,1.20927 0.08069,0.004 0.273857,-0.14642 0.429257,-0.33366 z m -4.012668,-2.97936 c 0.479674,-0.47967 0.315045,-0.73674 -1.205247,-1.882 -1.288621,-0.97073 -2.021038,-1.33774 -2.021038,-1.01272 0,0.0538 -0.06047,0.25534 -0.13437,0.44794 -0.09014,0.2349 0.352327,0.73877 1.344286,1.53083 1.64868,1.31643 1.626135,1.30619 2.016369,0.91595 z m -3.934174,-3.10153 c 0.156484,-0.18855 0.24827,-0.44243 0.203967,-0.56418 -0.128128,-0.35211 -2.81843,-2.36604 -3.160667,-2.36604 -0.291391,0 -0.345893,0.0975 -0.403335,0.72158 -0.02159,0.23453 2.597437,2.50277 2.928802,2.53652 0.08069,0.008 0.274748,-0.13933 0.431233,-0.32788 z m 2.578199,-5.15121 c 0,-0.58014 -0.01559,-0.58447 -2.104098,-0.58447 -2.088513,0 -2.104099,0.004 -2.104099,0.58447 0,0.58014 0.01559,0.58447 2.104099,0.58447 2.088512,0 2.104098,-0.004 2.104098,-0.58447 z m 5.143353,0 c 0,-0.58014 -0.01558,-0.58447 -2.104099,-0.58447 -2.088512,0 -2.104099,0.004 -2.104099,0.58447 0,0.58014 0.01558,0.58447 2.104099,0.58447 2.088513,0 2.104099,-0.004 2.104099,-0.58447 z m 4.909564,0 c 0,-0.58014 -0.01558,-0.58447 -2.104099,-0.58447 -2.088513,0 -2.104099,0.004 -2.104099,0.58447 0,0.58014 0.01558,0.58447 2.104099,0.58447 2.088512,0 2.104099,-0.004 2.104099,-0.58447 z m 4.909563,0 c 0,-0.58014 -0.01558,-0.58447 -2.104099,-0.58447 -2.088512,0 -2.104099,0.004 -2.104099,0.58447 0,0.58014 0.01558,0.58447 2.104099,0.58447 2.088512,0 2.104099,-0.004 2.104099,-0.58447 z m 5.143352,0 c 0,-0.58014 -0.01558,-0.58447 -2.104099,-0.58447 -2.08851,0 -2.104097,0.004 -2.104097,0.58447 0,0.58014 0.01558,0.58447 2.104097,0.58447 2.088512,0 2.104099,-0.004 2.104099,-0.58447 z m 4.909563,0 c 0,-0.58014 -0.01558,-0.58447 -2.104096,-0.58447 -2.088513,0 -2.104099,0.004 -2.104099,0.58447 0,0.58014 0.01558,0.58447 2.104099,0.58447 2.088509,0 2.104096,-0.004 2.104096,-0.58447 z m 5.143354,0 c 0,-0.58014 -0.01558,-0.58447 -2.104099,-0.58447 -2.088512,0 -2.104098,0.004 -2.104098,0.58447 0,0.58014 0.01558,0.58447 2.104098,0.58447 2.088513,0 2.104099,-0.004 2.104099,-0.58447 z m 4.909564,0 c 0,-0.58014 -0.01558,-0.58447 -2.104099,-0.58447 -2.088513,0 -2.104099,0.004 -2.104099,0.58447 0,0.58014 0.01558,0.58447 2.104099,0.58447 2.088512,0 2.104099,-0.004 2.104099,-0.58447 z"
           id="path1236"
           inkscape:connector-curvature="0" />
        <path
           style="opacity:1;fill:#ff0000;fill-opacity:1;stroke:none;stroke-width:0.44180551;stroke-miterlimit:4;stroke-dasharray:none;stroke-dashoffset:0;stroke-opacity:1"
           d="M 42.905814,83.319365 C 30.176017,73.423517 19.497715,65.125546 19.176255,64.879428 c -0.576307,-0.441235 0.0954,-0.447587 48.083627,-0.454893 l 48.668098,-0.0074 23.57263,18.26569 c 12.96494,10.046131 23.67257,18.357325 23.79472,18.469315 0.12619,0.11569 -20.8231,0.19413 -48.51117,0.18165 L 66.0509,101.31179 42.905814,83.319344 Z m 37.151006,8.09806 1.848911,-3.38763 h 5.669655 5.669656 l 0.270923,1.694968 c 0.149005,0.932231 0.395766,2.431402 0.548357,3.331488 l 0.277439,1.636522 1.957411,0.06838 c 1.783869,0.06232 1.947932,0.03123 1.850467,-0.350681 -0.05882,-0.230489 -1.150609,-6.073293 -2.4262,-12.984014 l -2.319256,-12.564946 -2.104098,0.0035 -2.104099,0.0035 -7.364347,12.765267 c -4.050389,7.020896 -7.399414,12.857673 -7.442274,12.970613 -0.04286,0.112943 0.798777,0.204309 1.870311,0.203041 l 1.948238,-0.0024 1.848906,-3.387632 z"
           id="path1242"
           inkscape:connector-curvature="0" />
        <path
           style="opacity:1;fill:#ff0000;fill-opacity:1;stroke:none;stroke-width:0.44180551;stroke-miterlimit:4;stroke-dasharray:none;stroke-dashoffset:0;stroke-opacity:1"
           d="m 83.740915,84.789686 c 0.272976,-0.703559 6.597764,-11.722372 6.728632,-11.722372 0.131413,0 2.145948,11.147372 2.123059,11.747883 -0.0037,0.09644 -2.014344,0.175342 -4.468154,0.175342 -2.453806,0 -4.4264,-0.09038 -4.383537,-0.200853 z"
           id="path1244"
           inkscape:connector-curvature="0" />
        <path
           style="fill:none;stroke:#000000;stroke-width:0.5;stroke-linecap:butt;stroke-linejoin:miter;stroke-miterlimit:4;stroke-dasharray:none;stroke-opacity:1;marker-end:url(#marker1260)"
           d="M 174.87398,201.23837 V 163.1384"
           id="path1250"
           inkscape:connector-curvature="0" />
        <flowRoot
           xml:space="preserve"
           id="flowRoot845-8-7"
           style="font-style:italic;font-variant:normal;font-weight:normal;font-stretch:normal;font-size:133.33332825px;line-height:1.25;font-family:sans-serif;-inkscape-font-specification:'sans-serif Italic';letter-spacing:0px;word-spacing:0px;fill:#000000;fill-opacity:1;stroke:none"
           transform="matrix(0.26458333,0,0,0.26458333,389.47413,89.935708)"><flowRegion
             id="flowRegion847-6-6"
             style="font-style:italic;font-variant:normal;font-weight:normal;font-stretch:normal;font-size:133.33332825px;font-family:sans-serif;-inkscape-font-specification:'sans-serif Italic'"><rect
               id="rect849-0-4"
               width="354.28571"
               height="317.14285"
               x="-797.14288"
               y="253.94826"
               style="font-style:italic;font-variant:normal;font-weight:normal;font-stretch:normal;font-size:133.33332825px;font-family:sans-serif;-inkscape-font-specification:'sans-serif Italic'" /></flowRegion><flowPara
             id="flowPara851-4-3">z</flowPara></flowRoot>        <path
           inkscape:connector-curvature="0"
           id="path1365"
           d="m 66.490206,163.17862 v -37.36088 h 2.145467 c 1.92505,0 2.145466,-0.0679 2.145466,-0.66125 0,-0.59343 -0.220416,-0.66125 -2.149075,-0.66125 h -2.149078 v -10.9107 -10.9107 h 49.098144 49.09814 v 29.56342 29.56342 l -0.99188,0.43905 c -0.55881,0.24736 -0.99188,0.69254 -0.99188,1.0196 0,0.42463 0.26638,0.58054 0.99188,0.58054 h 0.99188 v 18.34981 18.34982 H 115.58474 66.490206 Z m 5.282817,-0.0158 c 0,-0.62047 -0.172347,-0.6688 -2.0631,-0.5786 -1.654992,0.079 -2.084903,0.21289 -2.173321,0.67704 -0.09592,0.50354 0.171701,0.57859 2.063101,0.57859 1.969783,0 2.17332,-0.0634 2.17332,-0.67703 z m 5.290034,0.0158 c 0,-0.59343 -0.220417,-0.66125 -2.149076,-0.66125 -1.928659,0 -2.149078,0.0678 -2.149078,0.66125 0,0.59343 0.220419,0.66125 2.149078,0.66125 1.928659,0 2.149076,-0.0678 2.149076,-0.66125 z m 4.959408,0 c 0,-0.59343 -0.220417,-0.66125 -2.149076,-0.66125 -1.928659,0 -2.149078,0.0678 -2.149078,0.66125 0,0.59343 0.220419,0.66125 2.149078,0.66125 1.928659,0 2.149076,-0.0678 2.149076,-0.66125 z m 4.959408,0 c 0,-0.59343 -0.220417,-0.66125 -2.149076,-0.66125 -1.928659,0 -2.149078,0.0678 -2.149078,0.66125 0,0.59343 0.220419,0.66125 2.149078,0.66125 1.928659,0 2.149076,-0.0678 2.149076,-0.66125 z m 4.959411,0 c 0,-0.59343 -0.220419,-0.66125 -2.149078,-0.66125 -1.928659,0 -2.149078,0.0678 -2.149078,0.66125 0,0.59343 0.220419,0.66125 2.149078,0.66125 1.928659,0 2.149078,-0.0678 2.149078,-0.66125 z m 4.959408,0 c 0,-0.59343 -0.220419,-0.66125 -2.149078,-0.66125 -1.928659,0 -2.149078,0.0678 -2.149078,0.66125 0,0.59343 0.220419,0.66125 2.149078,0.66125 1.928659,0 2.149078,-0.0678 2.149078,-0.66125 z m 4.959408,0 c 0,-0.59343 -0.22042,-0.66125 -2.149078,-0.66125 -1.928659,0 -2.149076,0.0678 -2.149076,0.66125 0,0.59343 0.220417,0.66125 2.149076,0.66125 1.928658,0 2.149078,-0.0678 2.149078,-0.66125 z m 4.95941,0 c 0,-0.59343 -0.22042,-0.66125 -2.14908,-0.66125 -1.92866,0 -2.14908,0.0678 -2.14908,0.66125 0,0.59343 0.22042,0.66125 2.14908,0.66125 1.92866,0 2.14908,-0.0678 2.14908,-0.66125 z m 4.95941,0 c 0,-0.59343 -0.22042,-0.66125 -2.14908,-0.66125 -1.92866,0 -2.14908,0.0678 -2.14908,0.66125 0,0.59343 0.22042,0.66125 2.14908,0.66125 1.92866,0 2.14908,-0.0678 2.14908,-0.66125 z m 5.2283,0.0827 c -0.0884,-0.46415 -0.51833,-0.59807 -2.17332,-0.67704 -1.89076,-0.0902 -2.0631,-0.0419 -2.0631,0.5786 0,0.61363 0.20354,0.67703 2.17332,0.67703 1.89139,0 2.15902,-0.0751 2.0631,-0.57859 z m 5.02114,-0.0827 c 0,-0.59343 -0.22042,-0.66125 -2.14908,-0.66125 -1.92866,0 -2.14907,0.0678 -2.14907,0.66125 0,0.59343 0.22041,0.66125 2.14907,0.66125 1.92866,0 2.14908,-0.0678 2.14908,-0.66125 z m 4.95941,0 c 0,-0.59343 -0.22042,-0.66125 -2.14908,-0.66125 -1.92866,0 -2.14908,0.0678 -2.14908,0.66125 0,0.59343 0.22042,0.66125 2.14908,0.66125 1.92866,0 2.14908,-0.0678 2.14908,-0.66125 z m 4.9594,0 c 0,-0.59343 -0.22041,-0.66125 -2.14907,-0.66125 -1.92866,0 -2.14908,0.0678 -2.14908,0.66125 0,0.59343 0.22042,0.66125 2.14908,0.66125 1.92866,0 2.14907,-0.0678 2.14907,-0.66125 z m 4.95941,0 c 0,-0.59343 -0.22042,-0.66125 -2.14907,-0.66125 -1.92866,0 -2.14908,0.0678 -2.14908,0.66125 0,0.59343 0.22042,0.66125 2.14908,0.66125 1.92865,0 2.14907,-0.0678 2.14907,-0.66125 z m 4.95941,0 c 0,-0.59343 -0.22042,-0.66125 -2.14907,-0.66125 -1.92866,0 -2.14908,0.0678 -2.14908,0.66125 0,0.59343 0.22042,0.66125 2.14908,0.66125 1.92865,0 2.14907,-0.0678 2.14907,-0.66125 z m 4.95941,0 c 0,-0.59343 -0.22042,-0.66125 -2.14908,-0.66125 -1.92866,0 -2.14907,0.0678 -2.14907,0.66125 0,0.59343 0.22041,0.66125 2.14907,0.66125 1.92866,0 2.14908,-0.0678 2.14908,-0.66125 z m 4.95941,0 c 0,-0.59343 -0.22042,-0.66125 -2.14908,-0.66125 -1.92866,0 -2.14908,0.0678 -2.14908,0.66125 0,0.59343 0.22042,0.66125 2.14908,0.66125 1.92866,0 2.14908,-0.0678 2.14908,-0.66125 z m 5.2283,0.0827 c -0.0884,-0.46415 -0.51833,-0.59807 -2.17332,-0.67704 -1.89075,-0.0902 -2.0631,-0.0419 -2.0631,0.5786 0,0.61363 0.20354,0.67703 2.17332,0.67703 1.8914,0 2.15902,-0.0751 2.0631,-0.57859 z m 5.02114,-0.0827 c 0,-0.59343 -0.22042,-0.66125 -2.14908,-0.66125 -1.92865,0 -2.14907,0.0678 -2.14907,0.66125 0,0.59343 0.22042,0.66125 2.14907,0.66125 1.92866,0 2.14908,-0.0678 2.14908,-0.66125 z m 0.28179,-3.03931 c -0.79144,-0.68698 -1.64983,-1.21407 -1.90753,-1.1713 -0.9698,0.16096 -0.67449,0.88486 0.82942,2.03318 1.26125,0.96303 1.64466,1.11125 2.03553,0.78686 0.40698,-0.33777 0.2587,-0.59312 -0.95742,-1.64874 z m -2.61586,-2.01604 c -0.0801,-0.0614 -0.86386,-0.68746 -1.74169,-1.39117 -1.29456,-1.03779 -1.65266,-1.18993 -1.89573,-0.80541 -0.41386,0.65471 -0.3437,0.76422 1.34082,2.0927 1.29626,1.02227 1.54697,1.11082 1.96409,0.69371 0.26298,-0.26298 0.41261,-0.5284 0.33251,-0.58983 z m -4.0433,-2.75818 c 0.16095,-0.48346 -3.09071,-2.8798 -3.53505,-2.60518 -0.63031,0.38955 -0.31488,0.99383 1.08051,2.06999 1.38548,1.06851 2.21665,1.24974 2.45454,0.53519 z m -4.08528,-2.92627 c 0.12255,-0.31935 -0.34291,-0.89587 -1.33468,-1.65314 -1.65681,-1.26506 -1.92937,-1.35794 -2.28701,-0.77927 -0.14156,0.22905 0.34993,0.89088 1.22034,1.64327 1.58531,1.37036 2.11191,1.54341 2.40135,0.78914 z m -3.774,-3.56348 c -0.0801,-0.0561 -0.83658,-0.65184 -1.68108,-1.32381 -1.34271,-1.0684 -1.58789,-1.15857 -1.95322,-0.71838 -0.47002,0.56635 -0.39654,0.66854 1.5049,2.09291 1.14465,0.85746 1.38657,0.92752 1.79878,0.52101 0.26194,-0.25832 0.41072,-0.5156 0.33062,-0.57173 z m -3.94785,-2.86188 c 0,-0.12221 -0.7565,-0.79912 -1.68111,-1.50424 -1.35916,-1.03651 -1.7381,-1.19199 -1.9787,-0.81185 -0.42972,0.67896 -0.42546,0.68566 1.27801,2.00898 1.12678,0.87533 1.66909,1.11465 1.96852,0.86874 0.22731,-0.18669 0.41328,-0.43942 0.41328,-0.56163 z m -4.09902,-2.7272 c 0.2267,-0.3668 -0.66131,-1.27114 -2.45908,-2.50431 -0.6605,-0.45306 -0.81644,-0.46172 -1.07864,-0.0598 -0.22636,0.34695 0.062,0.79378 1.10275,1.70876 1.47718,1.29865 2.03904,1.49603 2.43497,0.85539 z m -3.9235,-3.15444 c 0.17995,-0.53985 -2.79459,-2.84878 -3.38041,-2.62398 -0.80607,0.30932 -0.59381,0.71192 1.05095,1.99333 1.52311,1.18665 2.09272,1.34086 2.32946,0.63065 z m -4.0699,-2.96273 c 0.11634,-0.30317 0.0951,-0.64865 -0.0473,-0.76773 -2.29856,-1.92289 -3.00462,-2.29811 -3.40854,-1.81142 -0.22884,0.27574 -0.35769,0.55938 -0.28631,0.6303 0.47173,0.46877 3.14484,2.46922 3.31801,2.48307 0.11693,0.009 0.30779,-0.23104 0.42413,-0.53422 z m -3.87757,-3.28148 c 0.0661,-0.19863 -0.57701,-0.90435 -1.4292,-1.56828 -1.26483,-0.98542 -1.6386,-1.13314 -2.03494,-0.8042 -0.41226,0.34214 -0.2673,0.59191 0.96066,1.65523 1.40319,1.21507 2.25638,1.45951 2.50348,0.71725 z m -3.99543,-2.84055 c 0.14791,-0.23931 -0.32617,-0.88118 -1.22034,-1.65224 -1.5818,-1.36403 -2.11362,-1.53474 -2.40619,-0.77233 -0.12254,0.31935 0.34292,0.89587 1.33468,1.65313 1.66126,1.26847 1.92898,1.35858 2.29185,0.77144 z m -3.92687,-3.27295 c 0.10927,-0.65499 -2.74939,-2.74175 -3.40913,-2.48859 -0.73662,0.28267 -0.52408,0.64091 1.18188,1.99203 1.51822,1.20245 2.08827,1.32954 2.22725,0.49656 z m -44.21691,-2.61762 c 0,-0.59343 -0.220419,-0.66125 -2.149078,-0.66125 -1.928659,0 -2.149078,0.0678 -2.149078,0.66125 0,0.59343 0.220419,0.66125 2.149078,0.66125 1.928659,0 2.149078,-0.0678 2.149078,-0.66125 z m 4.959408,0 c 0,-0.59343 -0.220419,-0.66125 -2.149078,-0.66125 -1.928659,0 -2.149078,0.0678 -2.149078,0.66125 0,0.59343 0.220419,0.66125 2.149078,0.66125 1.928659,0 2.149078,-0.0678 2.149078,-0.66125 z m 5.290034,0 c 0,-0.59343 -0.220419,-0.66125 -2.149075,-0.66125 -1.928659,0 -2.149078,0.0678 -2.149078,0.66125 0,0.59343 0.220419,0.66125 2.149078,0.66125 1.928656,0 2.149075,-0.0678 2.149075,-0.66125 z m 4.959409,0 c 0,-0.59343 -0.22042,-0.66125 -2.149076,-0.66125 -1.928659,0 -2.149078,0.0678 -2.149078,0.66125 0,0.59343 0.220419,0.66125 2.149078,0.66125 1.928656,0 2.149076,-0.0678 2.149076,-0.66125 z m 4.959408,0 c 0,-0.59343 -0.220419,-0.66125 -2.149076,-0.66125 -1.928659,0 -2.149078,0.0678 -2.149078,0.66125 0,0.59343 0.220419,0.66125 2.149078,0.66125 1.928657,0 2.149076,-0.0678 2.149076,-0.66125 z m 4.959411,0 c 0,-0.59343 -0.22042,-0.66125 -2.149079,-0.66125 -1.928659,0 -2.149078,0.0678 -2.149078,0.66125 0,0.59343 0.220419,0.66125 2.149078,0.66125 1.928659,0 2.149079,-0.0678 2.149079,-0.66125 z m 4.9594,0 c 0,-0.59343 -0.22041,-0.66125 -2.14907,-0.66125 -1.92866,0 -2.14908,0.0678 -2.14908,0.66125 0,0.59343 0.22042,0.66125 2.14908,0.66125 1.92866,0 2.14907,-0.0678 2.14907,-0.66125 z m 4.95941,0 c 0,-0.59343 -0.22042,-0.66125 -2.14907,-0.66125 -1.92866,0 -2.14908,0.0678 -2.14908,0.66125 0,0.59343 0.22042,0.66125 2.14908,0.66125 1.92865,0 2.14907,-0.0678 2.14907,-0.66125 z m 4.95941,0 c 0,-0.59343 -0.22042,-0.66125 -2.14907,-0.66125 -1.92866,0 -2.14908,0.0678 -2.14908,0.66125 0,0.59343 0.22042,0.66125 2.14908,0.66125 1.92865,0 2.14907,-0.0678 2.14907,-0.66125 z"
           style="opacity:1;fill:#ff0000;fill-opacity:1;stroke:none;stroke-width:0.62480736;stroke-miterlimit:4;stroke-dasharray:none;stroke-dashoffset:0;stroke-opacity:1" />
        <path
           inkscape:connector-curvature="0"
           id="path876-6"
           d="m 17.653953,114.62007 h 99.383937 l 49.1369,38.10018 H 66.790853 Z"
           style="opacity:1;fill:#c87d14;fill-opacity:1;stroke:#000000;stroke-width:1;stroke-linecap:butt;stroke-linejoin:miter;stroke-miterlimit:4;stroke-dasharray:4.00000004, 1.00000000999999994;stroke-dashoffset:0;stroke-opacity:1" />
        <path
           inkscape:connector-curvature="0"
           id="path1543"
           d="m 17.653953,114.62007 49.136899,38.10018 h 99.383938 l -1.49552,9.08043 -98.853382,1.43747 -49.136904,-38.10018 z"
           style="fill:#c87d14;stroke:#000000;stroke-width:0.26458332px;stroke-linecap:butt;stroke-linejoin:miter;stroke-opacity:1;fill-opacity:1" />
        <path
           inkscape:connector-curvature="0"
           id="path1551"
           d="m 65.794815,115.48565 0.695391,47.69297"
           style="fill:none;stroke:#000000;stroke-width:1;stroke-linecap:butt;stroke-linejoin:miter;stroke-opacity:1;stroke-miterlimit:4;stroke-dasharray:none" />
      </g>
    </g>
  </g>
</svg>
