<?xml version="1.0" encoding="UTF-8" standalone="no"?>
<!-- Created with Inkscape (http://www.inkscape.org/) -->

<svg
   xmlns:dc="http://purl.org/dc/elements/1.1/"
   xmlns:cc="http://creativecommons.org/ns#"
   xmlns:rdf="http://www.w3.org/1999/02/22-rdf-syntax-ns#"
   xmlns:svg="http://www.w3.org/2000/svg"
   xmlns="http://www.w3.org/2000/svg"
   xmlns:sodipodi="http://sodipodi.sourceforge.net/DTD/sodipodi-0.dtd"
   xmlns:inkscape="http://www.inkscape.org/namespaces/inkscape"
   width="210mm"
   height="297mm"
   viewBox="0 0 210 297"
   version="1.1"
   id="svg2357"
   inkscape:version="0.92.3 (2405546, 2018-03-11)"
   sodipodi:docname="turbulent.svg"
   inkscape:export-filename="/home/paul/Documents/Geneva/teaching/modeling_volcanic_processes/lecture4/turbulent.png"
   inkscape:export-xdpi="300"
   inkscape:export-ydpi="300">
  <defs
     id="defs2351">
    <marker
       inkscape:isstock="true"
       style="overflow:visible"
       id="marker2674"
       refX="0"
       refY="0"
       orient="auto"
       inkscape:stockid="Arrow1Lend">
      <path
         transform="matrix(-0.8,0,0,-0.8,-10,0)"
         style="fill:#000000;fill-opacity:1;fill-rule:evenodd;stroke:#000000;stroke-width:1.00000003pt;stroke-opacity:1"
         d="M 0,0 5,-5 -12.5,0 5,5 Z"
         id="path2672"
         inkscape:connector-curvature="0" />
    </marker>
    <marker
       inkscape:isstock="true"
       style="overflow:visible"
       id="marker2670"
       refX="0"
       refY="0"
       orient="auto"
       inkscape:stockid="Arrow1Lend">
      <path
         transform="matrix(-0.8,0,0,-0.8,-10,0)"
         style="fill:#000000;fill-opacity:1;fill-rule:evenodd;stroke:#000000;stroke-width:1.00000003pt;stroke-opacity:1"
         d="M 0,0 5,-5 -12.5,0 5,5 Z"
         id="path2668"
         inkscape:connector-curvature="0" />
    </marker>
    <marker
       inkscape:stockid="Arrow1Lend"
       orient="auto"
       refY="0.0"
       refX="0.0"
       id="marker2500"
       style="overflow:visible;"
       inkscape:isstock="true">
      <path
         id="path2498"
         d="M 0.0,0.0 L 5.0,-5.0 L -12.5,0.0 L 5.0,5.0 L 0.0,0.0 z "
         style="fill-rule:evenodd;stroke:#000000;stroke-width:1pt;stroke-opacity:1;fill:#000000;fill-opacity:1"
         transform="scale(0.8) rotate(180) translate(12.5,0)" />
    </marker>
    <marker
       inkscape:stockid="Arrow1Lend"
       orient="auto"
       refY="0.0"
       refX="0.0"
       id="marker2496"
       style="overflow:visible;"
       inkscape:isstock="true">
      <path
         id="path2494"
         d="M 0.0,0.0 L 5.0,-5.0 L -12.5,0.0 L 5.0,5.0 L 0.0,0.0 z "
         style="fill-rule:evenodd;stroke:#000000;stroke-width:1pt;stroke-opacity:1;fill:#000000;fill-opacity:1"
         transform="scale(0.8) rotate(180) translate(12.5,0)" />
    </marker>
    <marker
       inkscape:stockid="Arrow1Lend"
       orient="auto"
       refY="0.0"
       refX="0.0"
       id="marker2488"
       style="overflow:visible;"
       inkscape:isstock="true">
      <path
         id="path2486"
         d="M 0.0,0.0 L 5.0,-5.0 L -12.5,0.0 L 5.0,5.0 L 0.0,0.0 z "
         style="fill-rule:evenodd;stroke:#000000;stroke-width:1.0pt;"
         transform="scale(0.8) rotate(180) translate(12.5,0)" />
    </marker>
    <marker
       inkscape:stockid="Arrow1Lend"
       orient="auto"
       refY="0.0"
       refX="0.0"
       id="Arrow1Lend"
       style="overflow:visible;"
       inkscape:isstock="true">
      <path
         id="path1764"
         d="M 0.0,0.0 L 5.0,-5.0 L -12.5,0.0 L 5.0,5.0 L 0.0,0.0 z "
         style="fill-rule:evenodd;stroke:#000000;stroke-width:1.0pt;"
         transform="scale(0.8) rotate(180) translate(12.5,0)" />
    </marker>
    <marker
       inkscape:stockid="Arrow1Lend"
       orient="auto"
       refY="0"
       refX="0"
       id="marker2500-8"
       style="overflow:visible"
       inkscape:isstock="true">
      <path
         inkscape:connector-curvature="0"
         id="path2498-7"
         d="M 0,0 5,-5 -12.5,0 5,5 Z"
         style="fill:#000000;fill-opacity:1;fill-rule:evenodd;stroke:#000000;stroke-width:1.00000003pt;stroke-opacity:1"
         transform="matrix(-0.8,0,0,-0.8,-10,0)" />
    </marker>
    <marker
       inkscape:stockid="Arrow1Lend"
       orient="auto"
       refY="0"
       refX="0"
       id="marker2496-2"
       style="overflow:visible"
       inkscape:isstock="true">
      <path
         inkscape:connector-curvature="0"
         id="path2494-8"
         d="M 0,0 5,-5 -12.5,0 5,5 Z"
         style="fill:#000000;fill-opacity:1;fill-rule:evenodd;stroke:#000000;stroke-width:1.00000003pt;stroke-opacity:1"
         transform="matrix(-0.8,0,0,-0.8,-10,0)" />
    </marker>
    <marker
       inkscape:stockid="Arrow1Lend"
       orient="auto"
       refY="0"
       refX="0"
       id="marker2500-9"
       style="overflow:visible"
       inkscape:isstock="true">
      <path
         inkscape:connector-curvature="0"
         id="path2498-9"
         d="M 0,0 5,-5 -12.5,0 5,5 Z"
         style="fill:#000000;fill-opacity:1;fill-rule:evenodd;stroke:#000000;stroke-width:1.00000003pt;stroke-opacity:1"
         transform="matrix(-0.8,0,0,-0.8,-10,0)" />
    </marker>
    <marker
       inkscape:stockid="Arrow1Lend"
       orient="auto"
       refY="0"
       refX="0"
       id="marker2496-6"
       style="overflow:visible"
       inkscape:isstock="true">
      <path
         inkscape:connector-curvature="0"
         id="path2494-0"
         d="M 0,0 5,-5 -12.5,0 5,5 Z"
         style="fill:#000000;fill-opacity:1;fill-rule:evenodd;stroke:#000000;stroke-width:1.00000003pt;stroke-opacity:1"
         transform="matrix(-0.8,0,0,-0.8,-10,0)" />
    </marker>
    <marker
       inkscape:stockid="Arrow1Lend"
       orient="auto"
       refY="0"
       refX="0"
       id="marker2500-6"
       style="overflow:visible"
       inkscape:isstock="true">
      <path
         inkscape:connector-curvature="0"
         id="path2498-1"
         d="M 0,0 5,-5 -12.5,0 5,5 Z"
         style="fill:#000000;fill-opacity:1;fill-rule:evenodd;stroke:#000000;stroke-width:1.00000003pt;stroke-opacity:1"
         transform="matrix(-0.8,0,0,-0.8,-10,0)" />
    </marker>
    <marker
       inkscape:stockid="Arrow1Lend"
       orient="auto"
       refY="0"
       refX="0"
       id="marker2496-3"
       style="overflow:visible"
       inkscape:isstock="true">
      <path
         inkscape:connector-curvature="0"
         id="path2494-2"
         d="M 0,0 5,-5 -12.5,0 5,5 Z"
         style="fill:#000000;fill-opacity:1;fill-rule:evenodd;stroke:#000000;stroke-width:1.00000003pt;stroke-opacity:1"
         transform="matrix(-0.8,0,0,-0.8,-10,0)" />
    </marker>
    <marker
       inkscape:stockid="Arrow1Lend"
       orient="auto"
       refY="0"
       refX="0"
       id="marker2500-5"
       style="overflow:visible"
       inkscape:isstock="true">
      <path
         inkscape:connector-curvature="0"
         id="path2498-99"
         d="M 0,0 5,-5 -12.5,0 5,5 Z"
         style="fill:#000000;fill-opacity:1;fill-rule:evenodd;stroke:#000000;stroke-width:1.00000003pt;stroke-opacity:1"
         transform="matrix(-0.8,0,0,-0.8,-10,0)" />
    </marker>
    <marker
       inkscape:stockid="Arrow1Lend"
       orient="auto"
       refY="0"
       refX="0"
       id="marker2496-1"
       style="overflow:visible"
       inkscape:isstock="true">
      <path
         inkscape:connector-curvature="0"
         id="path2494-4"
         d="M 0,0 5,-5 -12.5,0 5,5 Z"
         style="fill:#000000;fill-opacity:1;fill-rule:evenodd;stroke:#000000;stroke-width:1.00000003pt;stroke-opacity:1"
         transform="matrix(-0.8,0,0,-0.8,-10,0)" />
    </marker>
    <marker
       inkscape:stockid="Arrow1Lend"
       orient="auto"
       refY="0"
       refX="0"
       id="marker2500-1"
       style="overflow:visible"
       inkscape:isstock="true">
      <path
         inkscape:connector-curvature="0"
         id="path2498-0"
         d="M 0,0 5,-5 -12.5,0 5,5 Z"
         style="fill:#000000;fill-opacity:1;fill-rule:evenodd;stroke:#000000;stroke-width:1.00000003pt;stroke-opacity:1"
         transform="matrix(-0.8,0,0,-0.8,-10,0)" />
    </marker>
    <marker
       inkscape:stockid="Arrow1Lend"
       orient="auto"
       refY="0"
       refX="0"
       id="marker2496-7"
       style="overflow:visible"
       inkscape:isstock="true">
      <path
         inkscape:connector-curvature="0"
         id="path2494-5"
         d="M 0,0 5,-5 -12.5,0 5,5 Z"
         style="fill:#000000;fill-opacity:1;fill-rule:evenodd;stroke:#000000;stroke-width:1.00000003pt;stroke-opacity:1"
         transform="matrix(-0.8,0,0,-0.8,-10,0)" />
    </marker>
    <marker
       inkscape:stockid="Arrow1Lend"
       orient="auto"
       refY="0"
       refX="0"
       id="marker2500-7-6"
       style="overflow:visible"
       inkscape:isstock="true">
      <path
         inkscape:connector-curvature="0"
         id="path2498-04-1"
         d="M 0,0 5,-5 -12.5,0 5,5 Z"
         style="fill:#000000;fill-opacity:1;fill-rule:evenodd;stroke:#000000;stroke-width:1.00000003pt;stroke-opacity:1"
         transform="matrix(-0.8,0,0,-0.8,-10,0)" />
    </marker>
    <marker
       inkscape:stockid="Arrow1Lend"
       orient="auto"
       refY="0"
       refX="0"
       id="marker2496-8-0"
       style="overflow:visible"
       inkscape:isstock="true">
      <path
         inkscape:connector-curvature="0"
         id="path2494-04-4"
         d="M 0,0 5,-5 -12.5,0 5,5 Z"
         style="fill:#000000;fill-opacity:1;fill-rule:evenodd;stroke:#000000;stroke-width:1.00000003pt;stroke-opacity:1"
         transform="matrix(-0.8,0,0,-0.8,-10,0)" />
    </marker>
  </defs>
  <sodipodi:namedview
     id="base"
     pagecolor="#ffffff"
     bordercolor="#666666"
     borderopacity="1.0"
     inkscape:pageopacity="0.0"
     inkscape:pageshadow="2"
     inkscape:zoom="0.55271289"
     inkscape:cx="189.92218"
     inkscape:cy="186.11784"
     inkscape:document-units="mm"
     inkscape:current-layer="layer1"
     showgrid="false"
     inkscape:window-width="1853"
     inkscape:window-height="1025"
     inkscape:window-x="67"
     inkscape:window-y="27"
     inkscape:window-maximized="1"
     showguides="true"
     inkscape:guide-bbox="true">
    <sodipodi:guide
       position="0,289.52977"
       orientation="1,0"
       id="guide2380"
       inkscape:locked="false"
       inkscape:label=""
       inkscape:color="rgb(0,0,255)" />
    <sodipodi:guide
       position="100,326.57144"
       orientation="1,0"
       id="guide2382"
       inkscape:locked="false"
       inkscape:label=""
       inkscape:color="rgb(0,0,255)" />
    <sodipodi:guide
       position="-320.5238,338.66668"
       orientation="1,0"
       id="guide2384"
       inkscape:locked="false" />
    <sodipodi:guide
       position="-165.55357,0"
       orientation="0,1"
       id="guide2386"
       inkscape:locked="false"
       inkscape:label=""
       inkscape:color="rgb(0,0,255)" />
    <sodipodi:guide
       position="-127.75595,100"
       orientation="0,1"
       id="guide2388"
       inkscape:locked="false"
       inkscape:label=""
       inkscape:color="rgb(0,0,255)" />
    <sodipodi:guide
       position="20,251.73215"
       orientation="1,0"
       id="guide2390"
       inkscape:locked="false"
       inkscape:label=""
       inkscape:color="rgb(0,0,255)" />
    <sodipodi:guide
       position="80,255.51191"
       orientation="1,0"
       id="guide2392"
       inkscape:locked="false"
       inkscape:label=""
       inkscape:color="rgb(0,0,255)" />
    <sodipodi:guide
       position="-107.34524,-10"
       orientation="0,1"
       id="guide2396"
       inkscape:locked="false"
       inkscape:label=""
       inkscape:color="rgb(0,0,255)" />
    <sodipodi:guide
       position="-42.988433,68.375303"
       orientation="1,0"
       id="guide2398"
       inkscape:locked="false"
       inkscape:label=""
       inkscape:color="rgb(0,0,255)" />
    <sodipodi:guide
       position="-33.679913,50"
       orientation="0,1"
       id="guide2400"
       inkscape:locked="false"
       inkscape:label=""
       inkscape:color="rgb(0,0,255)" />
    <sodipodi:guide
       position="-50.263437,150"
       orientation="0,1"
       id="guide2402"
       inkscape:locked="false"
       inkscape:label=""
       inkscape:color="rgb(0,0,255)" />
    <sodipodi:guide
       position="-32.790909,-150"
       orientation="0,1"
       id="guide2404"
       inkscape:locked="false"
       inkscape:label=""
       inkscape:color="rgb(0,0,255)" />
    <sodipodi:guide
       position="-58.897537,-50"
       orientation="0,1"
       id="guide2406"
       inkscape:locked="false"
       inkscape:label=""
       inkscape:color="rgb(0,0,255)" />
    <sodipodi:guide
       position="-50.742136,130"
       orientation="0,1"
       id="guide2424"
       inkscape:locked="false"
       inkscape:label=""
       inkscape:color="rgb(0,0,255)" />
    <sodipodi:guide
       position="0,114.07167"
       orientation="1,0"
       id="guide2468"
       inkscape:locked="false"
       inkscape:label=""
       inkscape:color="rgb(0,0,255)" />
    <sodipodi:guide
       position="-33.172176,175"
       orientation="0,1"
       id="guide2490"
       inkscape:locked="false"
       inkscape:label=""
       inkscape:color="rgb(0,0,255)" />
  </sodipodi:namedview>
  <metadata
     id="metadata2354">
    <rdf:RDF>
      <cc:Work
         rdf:about="">
        <dc:format>image/svg+xml</dc:format>
        <dc:type
           rdf:resource="http://purl.org/dc/dcmitype/StillImage" />
        <dc:title></dc:title>
      </cc:Work>
    </rdf:RDF>
  </metadata>
  <g
     inkscape:label="Layer 1"
     inkscape:groupmode="layer"
     id="layer1">
    <g
       id="g2795">
      <path
         d="M 100.10375,251.58539 A 50,50 0 0 1 46.48701,297.61409 50,50 0 0 1 0.38753471,244.05819 50,50 0 0 1 53.88249,197.88802 a 50,50 0 0 1 46.2408,53.43392"
         sodipodi:open="true"
         sodipodi:end="0.07138065"
         sodipodi:start="0.076664252"
         sodipodi:ry="50"
         sodipodi:rx="50"
         sodipodi:cy="247.75594"
         sodipodi:cx="50.250614"
         sodipodi:type="arc"
         id="path2378"
         style="opacity:1;fill:#ffffff;fill-opacity:1;stroke:#000000;stroke-width:1;stroke-miterlimit:4;stroke-dasharray:none;stroke-dashoffset:0;stroke-opacity:1" />
      <path
         inkscape:connector-curvature="0"
         id="path2428"
         d="m 39.999999,146.99999 v 25 c 0,0 -5.000001,15.47419 -24.999999,25 -20,9.52581 -20,50 -20,50"
         style="fill:none;stroke:#000000;stroke-width:0.75;stroke-linecap:butt;stroke-linejoin:miter;stroke-miterlimit:4;stroke-dasharray:none;stroke-opacity:1" />
      <path
         style="fill:none;stroke:#000000;stroke-width:0.75;stroke-linecap:butt;stroke-linejoin:miter;stroke-miterlimit:4;stroke-dasharray:none;stroke-opacity:1"
         d="m 60,146.99999 v 25 c 0,0 5.000001,15.47419 24.999999,25 C 105,206.5258 105,246.99999 105,246.99999"
         id="path2438"
         inkscape:connector-curvature="0" />
      <path
         inkscape:connector-curvature="0"
         id="path2452"
         d="m -9.9999997,246.99999 c 0,0 3.2301679,-50 9.9999997,-50 6.7698318,0 30,-25 30,-25 v -25"
         style="fill:none;stroke:#000000;stroke-width:0.75;stroke-linecap:butt;stroke-linejoin:miter;stroke-miterlimit:4;stroke-dasharray:none;stroke-opacity:1" />
      <path
         style="fill:none;stroke:#000000;stroke-width:0.75;stroke-linecap:butt;stroke-linejoin:miter;stroke-miterlimit:4;stroke-dasharray:none;stroke-opacity:1"
         d="m -10.1,246.99999 c 0,0 3.2301682,-50 10,-50 6.7698318,0 30,-25 30,-25 v -25"
         id="path2454"
         inkscape:connector-curvature="0" />
      <path
         inkscape:connector-curvature="0"
         id="path2462"
         d="m 110,246.99999 c 0,0 -3.23017,-50 -10,-50 -6.769832,0 -30,-25 -30,-25 v -25"
         style="fill:none;stroke:#000000;stroke-width:0.75;stroke-linecap:butt;stroke-linejoin:miter;stroke-miterlimit:4;stroke-dasharray:none;stroke-opacity:1" />
      <path
         inkscape:connector-curvature="0"
         id="path2492-2"
         d="m 30,122 v 24.99999"
         style="fill:none;stroke:#000000;stroke-width:0.75;stroke-linecap:butt;stroke-linejoin:miter;stroke-miterlimit:4;stroke-dasharray:none;stroke-opacity:1;marker-start:url(#marker2500-8);marker-mid:url(#marker2496-2)" />
      <path
         inkscape:connector-curvature="0"
         id="path2492-27"
         d="m 39.999999,121.99999 v 25"
         style="fill:none;stroke:#000000;stroke-width:0.75;stroke-linecap:butt;stroke-linejoin:miter;stroke-miterlimit:4;stroke-dasharray:none;stroke-opacity:1;marker-start:url(#marker2500-9);marker-mid:url(#marker2496-6)" />
      <path
         inkscape:connector-curvature="0"
         id="path2492-1"
         d="m 60,121.99999 v 25"
         style="fill:none;stroke:#000000;stroke-width:0.75;stroke-linecap:butt;stroke-linejoin:miter;stroke-miterlimit:4;stroke-dasharray:none;stroke-opacity:1;marker-start:url(#marker2500-6);marker-mid:url(#marker2496-3)" />
      <path
         inkscape:connector-curvature="0"
         id="path2492-9"
         d="m 70,121.99999 v 25"
         style="fill:none;stroke:#000000;stroke-width:0.75;stroke-linecap:butt;stroke-linejoin:miter;stroke-miterlimit:4;stroke-dasharray:none;stroke-opacity:1;marker-start:url(#marker2500-5);marker-mid:url(#marker2496-1)" />
      <path
         inkscape:connector-curvature="0"
         id="path2773"
         d="m -5,246.99999 c 0.390135,0.71002 0.8387839,1.3909 1.1704047,2.13006 0.08037,0.17914 0,2.49013 0,2.87219 0,0.9574 0,1.9148 0,2.8722 0,0.21559 -0.072842,1.29041 0,1.4361 0.1009187,0.20184 0.3777809,0.27686 0.4786995,0.4787 0.1914798,0.38296 -0.1914797,1.05314 0,1.4361 0.1009187,0.20183 0.3777806,0.27686 0.4786993,0.47869 0.0949,0.18981 -0.097864,1.33824 0,1.4361 0.1128305,0.11283 0.3658689,-0.11283 0.4786995,0 0.1128305,0.11283 -0.07136,0.33598 0,0.4787 0.1009187,0.20184 0.3777807,0.27686 0.4786994,0.4787 0.1427206,0.28545 -0.1427206,0.67196 0,0.9574 0.1009187,0.20184 0.3777807,0.27686 0.4786994,0.4787 0.1427206,0.28544 -0.1427206,0.67196 0,0.9574 0.1009187,0.20184 0.3777807,0.27686 0.4786994,0.4787 0.14272059,0.28544 -0.1427206,0.67197 0,0.9574 0.1009187,0.20182 0.3777807,0.27686 0.4786994,0.47871 0.14272059,0.28543 -0.14272059,0.67194 0,0.95739 0.1009187,0.20183 0.37778071,0.27686 0.4786994,0.47869 0.14272059,0.28546 -0.22566106,0.73173 0,0.95739 0.11283053,0.11285 0.36586887,-0.11281 0.4786994,0 0.22566106,0.22567 -0.14272059,0.67197 0,0.95743 0.1009187,0.20182 0.3777807,0.27686 0.4786994,0.47868 0.0713603,0.14272 -0.0713603,0.33599 0,0.47871 0.1009187,0.20182 0.3777807,0.27686 0.4786994,0.47868 0.1298442,0.25969 -0.1309827,1.78382 0,1.91482 0.1128305,0.11282 0.3658689,-0.11284 0.4786994,0 0.3175,0.3175 -0.3175,0.63989 0,0.95739 0.1128305,0.11282 0.3658689,-0.11284 0.4786994,0 0.2256611,0.22567 -0.2256611,0.73174 0,0.9574 0.1128306,0.11282 0.365869,-0.11285 0.4786995,0 0.1128305,0.11282 -0.07136,0.33597 0,0.47868 0.1009187,0.20185 0.3777806,0.27689 0.4786993,0.47871 0.07136,0.14272 -0.07136,0.33597 0,0.47872 0.1009186,0.20182 0.3777808,0.27686 0.4786995,0.47868 0.07136,0.14272 -0.07136,0.33599 0,0.47871 0.1009187,0.20182 0.3777805,0.27686 0.4786992,0.47868 0.07136,0.14275 -0.07136,0.336 0,0.47871 0.1009187,0.20183 0.3777808,0.27686 0.4786995,0.47869 0.07136,0.14274 -0.07136,0.33599 0,0.47871 0.1009187,0.20185 0.3777808,0.27686 0.4786995,0.47871 0.07136,0.14272 -0.07136,0.33597 0,0.47868 0.1009187,0.20185 0.3777806,0.27686 0.4786993,0.47871 0.07136,0.14272 -0.07136,0.33597 0,0.47869 0.1009187,0.20185 0.3777808,0.27686 0.4786995,0.47871 0.1427204,0.28543 -0.1427205,0.67196 0,0.95739 0.1009187,0.20185 0.3777808,0.27686 0.4786995,0.47871 0.07136,0.14272 -0.07136,0.33597 0,0.47869 0.1009187,0.20185 0.3777805,0.27686 0.4786992,0.47871 0.07136,0.14272 -0.07136,0.33597 0,0.47868 0.1009187,0.20185 0.3777808,0.27686 0.4786995,0.47871 0.07136,0.14272 -0.07136,0.33597 0,0.47872 0.1009187,0.20182 0.3777806,0.27686 0.4786993,0.47868 0.071361,0.14272 -0.07136,0.33599 0,0.47871 0.1009187,0.20182 0.3777808,0.27686 0.4786995,0.47868 0.1914797,0.38296 -0.1914798,1.05315 0,1.43611 0.1009187,0.20185 0.3777808,0.27686 0.4786995,0.47871 0.07136,0.14272 -0.071361,0.33597 0,0.47868 0.1009187,0.20185 0.3777805,0.27686 0.4786992,0.47871 0.1427208,0.28544 -0.1427205,0.67197 0,0.9574 0.1009187,0.20182 0.3777808,0.27686 0.4787,0.47868 0.14272,0.28546 -0.1427212,0.67197 0,0.95743 0.100918,0.20182 0.37778,0.27686 0.478699,0.47868 0.07136,0.14272 -0.07136,0.33599 0,0.47871 0.201837,0.40367 0.755561,0.55372 0.957399,0.95739 0.07136,0.14272 -0.07136,0.33597 0,0.47872 0.100918,0.20182 0.37778,0.27686 0.478699,0.47868 0.07136,0.14272 -0.11283,0.36587 0,0.47871 0.112831,0.11282 0.365869,-0.11284 0.4787,0 0.11283,0.11282 -0.07136,0.33597 0,0.47868 0.100918,0.20185 0.37778,0.27686 0.478699,0.47871 0.07136,0.14272 -0.07136,0.33597 0,0.47869 0.996116,1.99223 -0.03305,-0.51173 0.957399,0.47871 0.11283,0.11282 -0.112831,0.36587 0,0.47871 0.11283,0.11282 0.365869,-0.11284 0.478699,0 0.112831,0.11282 -0.11283,0.36587 0,0.47868 0.112831,0.11285 0.365869,-0.11281 0.4787,0 0.11283,0.11285 -0.112831,0.36587 0,0.47871 0.11283,0.11282 0.365868,-0.11284 0.478699,0 0.112831,0.11282 -0.112831,0.36587 0,0.47869 0.225661,0.22566 0.731738,-0.22566 0.957399,0 0.11283,0.11284 -0.112831,0.36586 0,0.47871 0.225661,0.22566 0.731738,-0.22566 0.957399,0 0.11283,0.11282 -0.112831,0.36587 0,0.47868 0.11283,0.11285 0.365868,-0.11281 0.478699,0 0.112831,0.11285 -0.112831,0.3659 0,0.47871 0.112831,0.11282 0.335979,-0.0713 0.478699,0 0.403675,0.20183 0.553724,0.75558 0.957399,0.9574 0.142721,0.0714 0.365869,-0.11282 0.4787,0 0.11283,0.11284 -0.112831,0.36587 0,0.47871 0.11283,0.11282 0.365868,-0.11284 0.478699,0 0.112831,0.11282 -0.112831,0.36587 0,0.47868 0.112831,0.11285 0.365869,-0.11281 0.478699,0 0.112831,0.11285 -0.11283,0.36587 0,0.47871 0.112831,0.11282 0.335979,-0.0713 0.4787,0 0.221675,0.11084 1.633253,1.63325 1.914797,1.91479 0.281544,0.28155 1.80396,1.69313 1.914798,1.91479 0.07136,0.14275 -0.11283,0.3659 0,0.47871 0.112831,0.11285 0.365869,-0.11281 0.478699,0 0.112831,0.11285 -0.07136,0.33597 0,0.47872 0.100919,0.20182 0.377781,0.27686 0.4787,0.47868 0.07136,0.14272 -0.07136,0.33599 0,0.47871 0.100918,0.20182 0.37778,0.27686 0.478699,0.47868 0.07136,0.14275 -0.07136,0.336 0,0.47871 0.100919,0.20183 0.377781,0.27686 0.478701,0.47872 0.142718,0.28543 -0.225664,0.73173 0,0.95739 0.112829,0.11282 0.319132,0 0.478697,0 0,0.15957 -0.112829,0.36587 0,0.47868 0.112832,0.11285 0.365871,-0.11281 0.4787,0 0.112832,0.11285 -0.07136,0.336 0,0.47871 0.10092,0.20183 0.37778,0.27686 0.4787,0.47869 0.142722,0.28546 -0.142721,0.67196 0,0.95742 0.287218,0.57444 1.148879,0.86164 1.436098,1.43608 0.07136,0.14272 -0.112829,0.36586 0,0.47871 0.112831,0.11282 0.365868,-0.11285 0.4787,0 0.112831,0.11282 -0.112832,0.36587 0,0.47868 0.112831,0.11285 0.365868,-0.11281 0.4787,0 0.990446,0.99047 -1.513533,-0.0387 0.478697,0.95743 0.142722,0.0713 0.365871,-0.11285 0.4787,0 0.22566,0.22563 -0.22566,0.73173 0,0.95739 0.112832,0.11282 0.365868,-0.11284 0.4787,0 0.225661,0.22566 -0.22566,0.73173 0,0.95739 0.112832,0.11282 0.365869,-0.11284 0.4787,0 0.112829,0.11282 -0.112831,0.36587 0,0.47869 0.112829,0.11284 0.365869,-0.11282 0.478697,0 0.09786,0.0979 -0.0949,1.24632 0,1.4361 0.996117,1.99224 -0.03305,-0.51173 0.957401,0.47871 0.112831,0.11282 -0.112832,0.36587 0,0.47869 0.112831,0.11284 0.365868,-0.11282 0.4787,0 0,1.27653 -0.159568,-0.15957 0.4787,0.47871 0.112829,0.11282 -0.07136,0.33597 0,0.47868 0.100917,0.20185 0.319132,0.31914 0.478697,0.47871 0.159568,0.15957 0.276863,0.37778 0.4787,0.47872 0.142722,0.0713 0.365869,-0.11285 0.4787,0 0.112829,0.11281 -0.112831,0.36586 0,0.47868 0.112829,0.11284 0.365869,-0.11282 0.4787,0 0.112829,0.11284 -0.112831,0.36587 0,0.47871 0.112829,0.11282 0.335979,-0.0714 0.478698,0 0.172204,0.0861 0.785196,0.8713 0.9574,0.95739 0.28544,0.14272 0.671957,-0.14271 0.957397,0 0.201837,0.10092 0.276863,0.37778 0.4787,0.47872 0.173114,0.0865 2.060543,0 2.393498,0 1.914797,0 3.829595,0 5.744392,0 1.276533,0 2.553063,0 3.829595,0 0.215585,0 1.290415,0.0728 1.436098,0 0.201837,-0.10094 0.276862,-0.3778 0.4787,-0.47872 0.142721,-0.0713 0.365868,0.11282 0.4787,0 0.112831,-0.11284 -0.07136,-0.33596 0,-0.47871 0.996116,-1.99223 -0.03305,0.51176 0.957397,-0.47868 0.112832,-0.11284 -0.112829,-0.36587 0,-0.47871 0.112832,-0.11282 0.365871,0.11284 0.4787,0 0.112832,-0.11282 -0.112829,-0.36587 0,-0.47868 0.112832,-0.11285 0.365869,0.11281 0.4787,0 0.0154,-0.0153 0,-1.32001 0,-1.43611 0,-1.11697 0,-2.23393 0,-3.3509 0,-0.15957 0.112832,-0.36586 0,-0.47871 -0.112831,-0.11281 -0.319132,0 -0.4787,0 0,-0.15957 0.112832,-0.36586 0,-0.47868 -0.112829,-0.11284 -0.365868,0.11282 -0.4787,0 -0.990444,-0.99044 1.513533,0.0387 -0.478697,-0.95739 -0.173115,-0.0866 -2.060544,0 -2.393498,0 -0.159567,0 -0.319132,0 -0.4787,0 -0.159565,0 -0.335978,0.0713 -0.4787,0 -0.124629,-0.0623 -0.583187,-0.85292 -0.957397,-0.47872 -0.112832,0.11282 0.112831,0.36587 0,0.47872 -0.112832,0.11281 -0.365869,-0.11285 -0.4787,0 -0.112829,0.11281 0.112831,0.36586 0,0.47868 -0.112829,0.11284 -0.365869,-0.11282 -0.4787,0 -0.0154,0.0154 0,1.32001 0,1.4361"
         style="fill:none;stroke:#000000;stroke-width:0.75;stroke-linecap:butt;stroke-linejoin:miter;stroke-opacity:1;stroke-miterlimit:4;stroke-dasharray:none" />
      <path
         inkscape:connector-curvature="0"
         id="path2775"
         d="m 105,246.99999 c -0.055,0.71002 -0.11992,1.41933 -0.16483,2.13006 -0.0799,1.26495 0,2.56176 0,3.82959 0,2.55307 0,5.10613 0,7.65919 0,0.79783 0,1.59567 0,2.3935 0,0.15957 0.11283,0.36587 0,0.4787 -0.11283,0.11283 -0.36587,-0.11283 -0.4787,0 -0.0979,0.0979 0.0949,1.24629 0,1.4361 -0.10092,0.20182 -0.37778,0.27686 -0.4787,0.47871 -0.0866,0.17309 0,2.06052 0,2.39347 0,0.15957 0.11283,0.3659 0,0.47871 -0.11283,0.11282 -0.36587,-0.11281 -0.4787,0 -0.22566,0.22567 0.22566,0.73174 0,0.9574 -0.11283,0.11284 -0.36587,-0.11282 -0.4787,0 -0.11519,0.1152 0.11519,1.79962 0,1.91479 -0.11283,0.11284 -0.36587,-0.11282 -0.4787,0 -0.22566,0.22566 0.14272,0.67196 0,0.95742 -0.10092,0.20182 -0.37778,0.27686 -0.4787,0.47868 -0.14272,0.28544 0.14272,0.67197 0,0.9574 -0.10091,0.20185 -0.37778,0.27686 -0.4787,0.47871 -0.0949,0.18979 0.0979,1.33824 0,1.43611 -0.11283,0.11281 -0.36587,-0.11285 -0.47869,0 -0.1152,0.11517 0.11518,1.79959 0,1.91478 -0.11284,0.11282 -0.36588,-0.11284 -0.4787,0 -0.0979,0.0979 0.0949,1.2463 0,1.43611 -0.10092,0.20182 -0.37778,0.27686 -0.4787,0.47868 -0.142726,0.28546 0.22566,0.73174 0,0.9574 -0.112836,0.11284 -0.365873,-0.11282 -0.478705,0 -0.22566,0.22566 0.142722,0.67196 0,0.95742 -0.201837,0.40367 -0.75556,0.55372 -0.957397,0.95739 -0.142722,0.28544 0.22566,0.73174 0,0.9574 -0.112832,0.11282 -0.365869,-0.11285 -0.4787,0 -0.112832,0.11282 0.07136,0.33597 0,0.47868 -0.10092,0.20185 -0.37778,0.27686 -0.4787,0.47871 -0.142719,0.28544 0.22566,0.73174 0,0.9574 -0.112829,0.11284 -0.365869,-0.11282 -0.4787,0 -0.112829,0.11284 0.112831,0.36587 0,0.47871 -0.112829,0.11282 -0.365869,-0.11284 -0.478698,0 -0.112831,0.11282 0.112829,0.36587 0,0.47868 -0.112831,0.11285 -0.365868,-0.11281 -0.4787,0 -0.990446,0.99045 1.513533,-0.0387 -0.4787,0.9574 -0.142719,0.0714 -0.365868,-0.11282 -0.4787,0 -0.112829,0.11284 0.112832,0.36589 0,0.47871 -0.112829,0.11282 -0.365868,-0.11282 -0.478697,0 -0.112832,0.11282 0.112829,0.36587 0,0.47871 -0.112832,0.11282 -0.365869,-0.11284 -0.4787,0 -0.112832,0.11282 0.112831,0.36587 0,0.47868 -0.112832,0.11285 -0.365869,-0.11281 -0.4787,0 -0.112829,0.11285 0.112831,0.36587 0,0.47871 -0.112829,0.11282 -0.365869,-0.11284 -0.4787,0 -0.112829,0.11282 0.112831,0.36587 0,0.47869 -0.112829,0.11284 -0.319133,0 -0.478698,0 0,0.15957 0.07136,0.33599 0,0.47871 -0.996116,1.99223 0.03305,-0.51176 -0.9574,0.47868 -0.112831,0.11285 0.112832,0.3659 0,0.47871 -0.112831,0.11285 -0.365868,-0.11281 -0.4787,0 -0.112829,0.11285 0.112832,0.36587 0,0.47872 -0.112829,0.11281 -0.365868,-0.11285 -0.478697,0 -0.112832,0.11281 0.112829,0.36586 0,0.47868 -0.112832,0.11284 -0.365871,-0.11282 -0.4787,0 -0.112832,0.11284 0.112829,0.36587 0,0.47871 -0.112832,0.11282 -0.365869,-0.11284 -0.4787,0 -0.112832,0.11282 0.112831,0.36587 0,0.47868 -0.112832,0.11285 -0.365869,-0.11281 -0.4787,0 -0.112829,0.11285 0.112831,0.36587 0,0.47871 -0.112829,0.11282 -0.365869,-0.11284 -0.478698,0 -0.112831,0.11282 0.112829,0.36587 0,0.47872 -0.112831,0.11281 -0.365871,-0.11285 -0.4787,0 -0.112831,0.11281 0.112829,0.36586 0,0.47868 -0.112831,0.11284 -0.365868,-0.11282 -0.4787,0 -0.112831,0.11284 0.112832,0.36587 0,0.47871 -0.112831,0.11282 -0.365868,-0.11284 -0.4787,0 -0.112829,0.11282 0.112832,0.36587 0,0.47868 -0.112829,0.11285 -0.365868,-0.11281 -0.4787,0 -0.112829,0.11285 0.112832,0.36587 0,0.47871 -0.112829,0.11282 -0.365868,-0.11284 -0.478697,0 -0.112832,0.11282 0,0.31915 0,0.47869 -0.159568,0 -0.335979,-0.0714 -0.4787,0 -1.992233,0.99613 0.511746,-0.0331 -0.4787,0.95742 -0.112829,0.11282 -0.335979,-0.0714 -0.4787,0 -0.201838,0.10091 -0.319133,0.31911 -0.478698,0.47868 -0.159567,0.15957 -0.377782,0.27686 -0.4787,0.47871 -0.07136,0.14272 0.112832,0.36587 0,0.47869 -0.112831,0.11284 -0.335978,-0.0714 -0.4787,0 -0.221676,0.11083 -1.633252,1.63327 -1.914797,1.91482 -0.159565,0.15954 -0.276863,0.37777 -0.4787,0.47868 -0.285441,0.14272 -0.731737,-0.22566 -0.957398,0 -0.112831,0.11284 0.112829,0.36587 0,0.47871 -0.112831,0.11282 -0.335978,-0.0714 -0.4787,0 -0.201837,0.10091 -0.276863,0.37777 -0.4787,0.47868 -0.142719,0.0714 -0.335978,-0.0713 -0.478697,0 -0.255667,0.12785 -1.184082,1.18409 -1.4361,1.43611 -0.159565,0.15957 -0.319133,0.31914 -0.4787,0.47871 -0.159565,0.15954 -0.37778,0.27686 -0.478698,0.47868 -0.07136,0.14272 0.112829,0.36587 0,0.47871 -0.112831,0.11282 -0.365868,-0.11284 -0.4787,0 -0.112831,0.11282 0.112832,0.36587 0,0.47869 -0.112831,0.11284 -0.365868,-0.11282 -0.4787,0 -0.112829,0.11284 0.112832,0.36586 0,0.47871 -0.112829,0.11282 -0.365868,-0.11285 -0.4787,0 -0.112829,0.11282 0.07136,0.33597 0,0.47868 -0.100917,0.20185 -0.37778,0.27689 -0.478697,0.47871 -0.07136,0.14272 0.112829,0.36587 0,0.47872 -0.112832,0.11281 -0.335979,-0.0714 -0.4787,0 -1.992233,0.9961 0.511746,-0.0331 -0.4787,0.95739 -0.112829,0.11282 -0.365869,-0.11284 -0.4787,0 -0.112829,0.11282 0.112831,0.36587 0,0.47868 -0.112829,0.11285 -0.365869,-0.11281 -0.478698,0 -0.112831,0.11285 0.07136,0.336 0,0.47871 -0.10092,0.20183 -0.377782,0.27686 -0.4787,0.47872 -0.07136,0.14271 0.07136,0.33596 0,0.47868 -0.10092,0.20185 -0.37778,0.27686 -0.4787,0.47871 -0.07136,0.14272 0.112832,0.36587 0,0.47868 -0.112829,0.11285 -0.365868,-0.11281 -0.4787,0 -0.23935,0.23937 0.23935,1.19677 0,1.43611 -0.112829,0.11282 -0.365868,-0.11282 -0.478697,0 -0.112832,0.11282 0,0.31914 0,0.47871 0,1.11697 0,2.23393 0,3.3509 0,2.71261 0,5.42525 0,8.13786 0,0.1161 -0.0154,1.42071 0,1.43611 0.112829,0.11284 0.365868,-0.11282 0.478697,0 0.130985,0.13099 -0.129844,1.6551 0,1.91479 0.10092,0.20185 0.377783,0.27686 0.4787,0.47871 0.07284,0.14568 0,1.22052 0,1.43611 0,1.27653 0,2.55304 0,3.82957 0,1.27654 0,2.55307 0,3.82961 0,0.15957 0.112832,0.36587 0,0.47871 -0.112829,0.11282 -0.365868,-0.11284 -0.4787,0 -0.112829,0.11282 0.112832,0.36587 0,0.47868 -0.112829,0.11285 -0.365868,-0.11281 -0.478697,0 -0.112832,0.11285 0.07136,0.33597 0,0.47872 -0.10092,0.20182 -0.377783,0.27686 -0.4787,0.47868 -0.07136,0.14272 0.112829,0.36587 0,0.47871 -0.112832,0.11282 -0.335979,-0.0714 -0.4787,0 -0.09163,0.0458 -1.868983,1.82316 -1.914798,1.91479 -0.142721,0.28543 0.225661,0.73173 0,0.95739 -0.112831,0.11285 -0.335978,-0.0713 -0.4787,0 -0.201837,0.10094 -0.319132,0.31914 -0.478697,0.47871 -0.159568,0.15958 -0.377783,0.27686 -0.4787,0.47869 -0.07136,0.14274 0.112829,0.36589 0,0.47871 -1.276533,0 0.159565,-0.15957 -0.4787,0.47871 -0.112832,0.11282 -0.365869,-0.11284 -0.4787,0 -0.112829,0.11282 0.112831,0.36587 0,0.47868 -0.112829,0.11285 -0.365869,-0.11281 -0.4787,0 -0.112829,0.11285 0.112831,0.36587 0,0.47872 -0.990444,0.99044 0.03872,-1.51355 -0.957398,0.47868 -0.07136,0.14272 0.112832,0.36587 0,0.47871 -0.112831,0.11282 -0.335978,-0.0714 -0.4787,0 -0.201837,0.10091 -0.319132,0.31914 -0.4787,0.47868 -0.159565,0.15957 -0.37778,0.27689 -0.478697,0.47871 -0.07136,0.14272 0.112829,0.36587 0,0.47872 -0.112832,0.11281 -0.335979,-0.0714 -0.4787,0 -0.201838,0.10091 -0.319133,0.31911 -0.4787,0.47868 -0.159565,0.15957 -0.319133,0.31914 -0.4787,0.47871 -0.159565,0.15957 -0.319133,0.31911 -0.478698,0.47868 -0.159567,0.15957 -0.276862,0.3778 -0.4787,0.47871 -0.142721,0.0714 -0.335978,-0.0713 -0.4787,0 -0.201837,0.10092 -0.276863,0.37778 -0.4787,0.47869 -0.142719,0.0714 -0.327321,-0.0505 -0.478697,0 -0.338492,0.11284 -0.618908,0.36589 -0.9574,0.47871 -0.270082,0.09 -1.121543,0 -1.436098,0 -1.116965,0 -2.23393,0 -3.350897,0 -2.23393,0 -4.46786,0 -6.70179,0 -0.482077,0 -2.607469,0.0882 -2.872198,0 -0.21408,-0.0714 -0.264618,-0.40733 -0.4787,-0.47871 -0.302755,-0.10091 -0.638265,0 -0.957397,0 -0.159568,0 -0.335979,0.0714 -0.4787,0 -0.201838,-0.10091 -0.276863,-0.37777 -0.4787,-0.47869 -0.142719,-0.0713 -0.335979,0.0714 -0.478698,0 -0.201837,-0.10091 -0.276863,-0.37777 -0.4787,-0.47871 -0.142721,-0.0713 -0.335978,0.0714 -0.4787,0 -0.201837,-0.10091 -0.276863,-0.37777 -0.4787,-0.47868 -0.142719,-0.0714 -0.335978,0.0714 -0.478697,0 -1.587649,-1.58766 0.451321,0.22566 -0.9574,-0.47871 -0.201838,-0.10091 -0.276863,-0.37777 -0.4787,-0.47868 -0.142719,-0.0714 -0.335979,0.0713 -0.478698,0 -0.201837,-0.10094 -0.276863,-0.3778 -0.4787,-0.47872 -0.28544,-0.14271 -0.731737,0.22567 -0.9574,0 -0.112829,-0.11281 0.112832,-0.36586 0,-0.47871 -0.112829,-0.11281 -0.365868,0.11285 -0.478697,0 -0.112832,-0.11281 0.112829,-0.36586 0,-0.47868 -0.112832,-0.11284 -0.365871,0.11282 -0.4787,0 -0.112832,-0.11284 0.112829,-0.36587 0,-0.47871 -0.112832,-0.11282 -0.365869,0.11284 -0.4787,0 -0.130982,-0.13097 0.129844,-1.6551 0,-1.91479 -0.100918,-0.20185 -0.37778,-0.27686 -0.4787,-0.47871 -0.06293,-0.12586 0,-1.66447 0,-1.91479 0,-0.15957 -0.112829,-0.36587 0,-0.47868 0.112831,-0.11285 0.365868,0.11281 0.4787,0 0.22566,-0.22567 -0.225661,-0.73176 0,-0.95743 0.112831,-0.11281 0.365868,0.11285 0.4787,0 0.112829,-0.11281 0,-0.31911 0,-0.47868 0.159565,0 0.365868,0.11282 0.4787,0 0.112829,-0.11284 -0.07136,-0.33599 0,-0.47871 0.201837,-0.40368 0.75556,-0.55372 0.957397,-0.9574 0.07136,-0.14271 -0.112832,-0.36586 0,-0.47868 0.112832,-0.11284 0.365869,0.11282 0.4787,0 0.112829,-0.11284 -0.112831,-0.36589 0,-0.47871 0.112829,-0.11285 0.335979,0.0714 0.4787,0 0.508,-0.254 0.449398,-0.7034 0.957398,-0.9574 0.123769,-0.0619 2.532893,0 2.872197,0 0.159565,0 0.319133,0 0.478698,0 0.159567,0 0.365871,0.11282 0.4787,0 0.112831,-0.11284 -0.112829,-0.36586 0,-0.47871 0.23935,-0.23934 1.19675,0.23935 1.436097,0 0.112832,-0.11281 -0.112829,-0.36586 0,-0.47868 0.112832,-0.11284 0.319135,0 0.4787,0 0.159568,0 0.319133,0 0.4787,0 2.074365,0 4.148728,0 6.223093,0 0.957397,0 1.914797,0 2.872195,0 0.159567,0 0.319135,0 0.4787,0 0.159567,0 0.335978,-0.0714 0.4787,0 0.1271,0.0636 1.372547,1.309 1.436097,1.43608 0.07136,0.14274 -0.07136,0.33599 0,0.47871 0.10092,0.20182 0.377783,0.27686 0.4787,0.47871 0.07136,0.14272 0,0.31911 0,0.47868 0,0.15957 0,0.31914 0,0.47872 0,0.95739 0,1.91478 0,2.87218 0,1.827 0,3.65397 0,5.48095"
         style="fill:none;stroke:#000000;stroke-width:0.75;stroke-linecap:butt;stroke-linejoin:miter;stroke-opacity:1;stroke-miterlimit:4;stroke-dasharray:none" />
      <path
         inkscape:connector-curvature="0"
         id="path2777"
         d="m -10.1,246.99999 c 0.08484,5.01706 0.04731,10.03675 0.04731,15.05494 0,0.9574 0,1.9148 0,2.8722 0,0.21558 -0.07284,1.2904 0,1.4361 0.1009192,0.20183 0.3777813,0.27686 0.4787,0.47869 0.07136,0.14272 -0.07136,0.33599 0,0.47871 0.1009187,0.20182 0.3777805,0.27686 0.4786992,0.47868 0.071361,0.14275 -0.07136,0.336 0,0.47871 0.2872198,0.57444 1.1488788,0.86167 1.4360983,1.43611 0.07136,0.14272 -0.1128305,0.36587 0,0.47868 0.1128305,0.11285 0.365869,-0.11281 0.4786995,0 0.225661,0.22567 -0.1427208,0.67197 0,0.9574 0.1009187,0.20185 0.3777805,0.27689 0.4786992,0.47871 0.07136,0.14272 -0.07136,0.33597 0,0.47871 0.2018374,0.40367 0.7555617,0.55372 0.957399,0.95739 0.1427205,0.28544 -0.1427207,0.67197 0,0.9574 0.1009187,0.20182 0.3777806,0.27686 0.4786993,0.47868 0.07136,0.14275 -0.07136,0.336 0,0.47871 0.1009187,0.20186 0.3777808,0.27686 0.4786995,0.47872 0.07136,0.14271 -0.07136,0.33596 0,0.47868 0.1009187,0.20185 0.3777808,0.27686 0.4786995,0.47871 0.07136,0.14272 -0.07136,0.33597 0,0.47868 0.1322917,0.26459 0.8251071,0.69282 0.9573987,0.9574 0.07136,0.14274 -0.07136,0.33599 0,0.47871 0.1009187,0.20185 0.3777806,0.27686 0.4786993,0.47871 0.07136,0.14272 -0.07136,0.33597 0,0.47868 0.1009187,0.20185 0.3777808,0.27686 0.4786995,0.47871 0.07136,0.14272 -0.07136,0.33597 0,0.47869 0.1009187,0.20185 0.3777807,0.27686 0.4786994,0.47871 0.1427206,0.28543 -0.1427206,0.67196 0,0.95739 0.1009187,0.20185 0.3777807,0.27686 0.4786994,0.47871 0.07136,0.14272 -0.1128305,0.36587 0,0.47869 0.1128305,0.11284 0.3658689,-0.11282 0.4786994,0 0.11283053,0.11284 -0.0713603,0.33599 0,0.47871 0.1009187,0.20182 0.3777807,0.27686 0.4786994,0.47868 0.0949002,0.18982 -0.0978636,1.33824 0,1.43611 0.11283053,0.11284 0.36586887,-0.11282 0.4786994,0 0.0978636,0.0979 -0.09490021,1.24629 0,1.4361 0.10091869,0.20183 0.3777807,0.27686 0.4786994,0.47869 0.14272059,0.28546 -0.22566106,0.73176 0,0.95742 0.11283053,0.11282 0.36586887,-0.11284 0.4786994,0 0.2256611,0.22566 -0.22566106,0.73173 0,0.95739 0.1128305,0.11282 0.3658689,-0.11284 0.4786994,0 0.2256611,0.22567 -0.2256611,0.73174 0,0.9574 0.1128305,0.11282 0.3658689,-0.11285 0.4786994,0 0.2256611,0.22566 -0.1427206,0.67196 0,0.95739 0.1009187,0.20186 0.3777807,0.27686 0.4786994,0.47872 0.07136,0.14271 -0.1128305,0.36586 0,0.47868 0.1128306,0.11284 0.365869,-0.11282 0.4786995,0 0.225661,0.22566 -0.1427207,0.67196 0,0.95739 0.2018374,0.40368 0.7555614,0.55375 0.9573988,0.95743 0.1427204,0.28543 -0.1427208,0.67193 0,0.95739 0.1009187,0.20182 0.3777805,0.27686 0.4786992,0.47868 0.1427207,0.28546 -0.225661,0.73174 0,0.9574 0.1128308,0.11284 0.365869,-0.11282 0.4786995,0 0.225661,0.22566 -0.1427205,0.67196 0,0.95742 0.1009187,0.20182 0.3777808,0.27686 0.4786995,0.47868 0.07136,0.14272 -0.07136,0.336 0,0.47871 0.1009187,0.20183 0.3777806,0.27686 0.4786993,0.47869 0.07136,0.14272 -0.07136,0.33599 0,0.47871 0.1009187,0.20182 0.3777808,0.27686 0.4786995,0.47868 0.1427204,0.28546 -0.1427205,0.67197 0,0.95743 0.1009187,0.20182 0.3777808,0.27686 0.4786995,0.47868 0.1427204,0.28543 -0.1427208,0.67196 0,0.95739 0.1009187,0.20185 0.3777805,0.27686 0.4786992,0.47871 0.1427208,0.28544 -0.225661,0.73174 0,0.9574 0.1128305,0.11282 0.365869,-0.11282 0.4786995,0 0.225661,0.22566 -0.225661,0.73173 0,0.95739 0.1128305,0.11285 0.3658688,-0.11281 0.4786993,0 0.1128305,0.11285 0,0.31914 0,0.47871 0,0.15958 0,0.31912 0,0.47869 0,0.79785 0,1.59567 0,2.3935 0,0.15957 0,0.31914 0,0.47871 0,0.15957 -0.07136,0.33597 0,0.47868 0.2018374,0.40368 0.7555616,0.55375 0.957399,0.95743 0.062935,0.12586 0,1.66446 0,1.91478 0,1.43611 0,2.87219 0,4.30829 0,0.1161 0.015396,1.42071 0,1.43611 -0.1128308,0.11282 -0.365869,-0.11284 -0.4786995,0 -0.225661,0.22566 0.225661,0.73173 0,0.95739 -0.1128305,0.11282 -0.365869,-0.11284 -0.4786995,0 -0.1128305,0.11282 0.1128305,0.36587 0,0.47869 -0.1128305,0.11284 -0.3658688,-0.11282 -0.4786993,0 -0.1128305,0.11284 0,0.31914 0,0.47871 -0.1595665,0 -0.365869,-0.11282 -0.4786995,0 -0.3175,0.3175 0.3175,0.63989 0,0.95739 -0.1128305,0.11285 -0.3658687,-0.11281 -0.4786992,0 -0.1128308,0.11285 0.07136,0.336 0,0.47871 -0.2930771,0.58616 -0.6643219,0.37124 -0.957399,0.9574 -0.1427205,0.28543 0.1427207,0.67196 0,0.95739 -0.1009187,0.20186 -0.3777806,0.27686 -0.4786993,0.47872 -0.07136,0.14271 0.07136,0.33596 0,0.47868 -0.1009187,0.20185 -0.3777808,0.27686 -0.4786995,0.47871 -0.07136,0.14272 0.07136,0.33597 0,0.47868 -0.1009187,0.20185 -0.3777808,0.27686 -0.4786995,0.47871 -0.07136,0.14272 0.07136,0.33597 0,0.47872 -0.1009187,0.20182 -0.3777805,0.27686 -0.4786992,0.47868 -0.07136,0.14272 0.1128305,0.36587 0,0.47871 -0.1128305,0.11282 -0.365869,-0.11284 -0.4786995,0 -0.015394,0.0153 0,1.31998 0,1.43608 0,0.15957 0,0.31914 0,0.47871 0,0.15957 0.07136,0.33597 0,0.47871 -0.1009187,0.20182 -0.3777806,0.27686 -0.4786993,0.47868 -0.1504368,0.30089 0.1504365,1.61394 0,1.91479 -0.1009187,0.20185 -0.3777808,0.27689 -0.4786995,0.47871 -0.07136,0.14272 0,0.31914 0,0.47872 0,0.15954 0,0.31911 0,0.47868 0,0.95739 0,1.91479 0,2.87221 0,0.15954 0,0.31911 0,0.47868 0,0.15957 0.1128306,0.36587 0,0.47871 -0.1128305,0.11282 -0.3658689,-0.11284 -0.4786994,0 -0.1128305,0.11282 0,0.31912 0,0.47869 0,0.15957 0,0.31914 0,0.47871 0,1.27653 0,2.55307 0,3.82961 0,3.19132 0,6.38264 0,9.57397 0,3.19132 0,6.38265 0,9.574 0,0.1161 -0.015395,1.42068 0,1.43608 0.1128305,0.11284 0.3658689,-0.11282 0.4786994,0 0.097864,0.0979 -0.0949,1.24629 0,1.4361 0.2018374,0.40368 0.7555614,0.55372 0.9573988,0.9574 0.1427207,0.28546 -0.1427205,0.67196 0,0.95739 0.2018373,0.40368 0.7555613,0.55372 0.9573987,0.9574 0.19148,0.38298 -0.1914797,1.05315 0,1.4361 0.1009187,0.20185 0.3777808,0.27686 0.4786995,0.47871 0.07136,0.14272 -0.050459,0.32732 0,0.47869 0.1128305,0.33851 0.365869,0.61891 0.4786995,0.95742 0.050459,0.15137 -0.07136,0.33597 0,0.47868 0.1009187,0.20186 0.3777806,0.27686 0.4786993,0.47872 0.07136,0.14271 -0.07136,0.33596 0,0.47868 0.1009187,0.20185 0.3777808,0.27686 0.4786995,0.47871 0.1427204,0.28543 -0.1427205,0.67196 0,0.95739 0.1009187,0.20183 0.3777808,0.27686 0.4786995,0.47872 0.1427204,0.28543 -0.1427208,0.67193 0,0.95739 0.1009187,0.20182 0.3777805,0.27686 0.4786992,0.47868 0.07136,0.14272 -0.07136,0.336 0,0.47871 0.1009187,0.20183 0.3777808,0.27686 0.4786995,0.47869 0.07136,0.14274 -0.1128305,0.36589 0,0.47871 0.1128305,0.11282 0.3658688,-0.11282 0.4786993,0 0.2256612,0.22566 -0.1427205,0.67196 0,0.95739 0.1009187,0.20186 0.3777808,0.27686 0.4786995,0.47872 0.1427204,0.28543 -0.225661,0.73173 0,0.95739 0.1128305,0.11282 0.3658687,-0.11284 0.4786995,0 0.1128305,0.11282 -0.1128308,0.36587 0,0.47868 0.1128305,0.11285 0.3658687,-0.11281 0.4786992,0 0.1128305,0.11285 -0.1128305,0.3659 0,0.47871 0.1128305,0.11285 0.365869,-0.11281 0.4787,0 0.11283,0.11285 -0.112831,0.36587 0,0.47872 0.11283,0.11281 0.365868,-0.11285 0.478699,0 0.11283,0.11281 -0.07136,0.33596 0,0.47868 0.06355,0.12711 1.308998,1.37255 1.436098,1.4361 0.142721,0.0714 0.365869,-0.11284 0.4787,0 0.225661,0.22567 -0.225661,0.73174 0,0.9574 0.11283,0.11284 0.365868,-0.11282 0.478699,0 0.112831,0.11284 -0.07136,0.33597 0,0.47871 0.201837,0.40367 0.755561,0.55372 0.957399,0.95739 0.07136,0.14272 -0.112831,0.36587 0,0.47869 0.11283,0.11284 0.365869,-0.11282 0.478699,0 0.112831,0.11284 -0.11283,0.36586 0,0.47871 0.112831,0.11282 0.335979,-0.0714 0.4787,0 0.127099,0.0635 1.372548,1.309 1.436098,1.43611 0.07136,0.14271 -0.112831,0.36586 0,0.47868 0.11283,0.11284 0.365869,-0.11282 0.478699,0 0.112831,0.11284 -0.11283,0.36587 0,0.47871 0.225661,0.22566 0.671958,-0.14272 0.957399,0 0.403675,0.20182 0.553724,0.75554 0.957399,0.95739 0.14272,0.0714 0.335979,-0.0713 0.478699,0 0.201837,0.10092 0.276862,0.37778 0.4787,0.47872 0.285441,0.14271 0.731737,-0.22567 0.957398,0 0.112831,0.11281 -0.11283,0.36586 0,0.47868 0.0217,0.0217 2.167792,0 2.393497,0 3.989162,0 7.978324,0 11.967487,0 0.957397,0 1.914797,0 2.872195,0 0.159567,0 0.319132,0 0.4787,0 0.159564,0 0.335978,-0.0714 0.4787,0 0.201837,0.10091 0.27686,0.37777 0.478697,0.47871 0.0982,0.0491 1.368592,0.0675 1.4361,0 0.112829,-0.11284 -0.112831,-0.36587 0,-0.47871 0.112829,-0.11282 0.335979,0.0714 0.478698,0 0.201837,-0.10091 0.276862,-0.37777 0.4787,-0.47868 0.142721,-0.0714 0.335978,0.0713 0.4787,0 0.201837,-0.10094 0.276862,-0.3778 0.4787,-0.47872 0.142719,-0.0713 0.335978,0.0714 0.478697,0 0.403675,-0.20185 0.553725,-0.75557 0.9574,-0.95739 0.142722,-0.0714 0.365869,0.11282 0.4787,0 0.112829,-0.11284 -0.07136,-0.33599 0,-0.47871 0.287219,-0.57444 1.148879,-0.86164 1.436098,-1.43608 0.08655,-0.17312 0,-2.06055 0,-2.3935 0,-1.91482 0,-3.82961 0,-5.74439 0,-1.75525 0,-3.51047 0,-5.26572 0,-0.43148 -0.100431,-2.09219 0,-2.39347 0.112831,-0.33851 0.365868,-0.61891 0.4787,-0.95742 0.100917,-0.30274 0,-0.63826 0,-0.9574 0,-0.79782 0,-1.59564 0,-2.3935 0,-0.21558 0.07284,-1.2904 0,-1.43607 -0.10092,-0.20186 -0.37778,-0.27686 -0.4787,-0.47872 -0.07136,-0.14271 0.07136,-0.33596 0,-0.47871 -0.06355,-0.12708 -1.309,-1.37252 -1.436098,-1.43607 -0.142721,-0.0714 -0.365868,0.11281 -0.4787,0 -0.22566,-0.22567 0.225661,-0.73176 0,-0.9574 -0.09786,-0.0979 -1.246299,0.0949 -1.436097,0 -0.201838,-0.10094 -0.276863,-0.3778 -0.4787,-0.47871 -0.145685,-0.0728 -1.220513,0 -1.436098,0 -0.9574,0 -1.914797,0 -2.872197,0 -2.553063,0 -5.106128,0 -7.65919,0 -0.250323,0 -1.788928,0.0629 -1.914798,0 -0.124629,-0.0623 -0.583187,-0.85291 -0.9574,-0.47871 -0.112829,0.11284 0,0.31914 0,0.47871 0,0.33295 0.08656,2.22038 0,2.3935 -0.100917,0.20182 -0.37778,0.27686 -0.478697,0.47868 -0.06294,0.12589 0,1.6645 0,1.91482 0,0.21558 -0.07284,1.2904 0,1.43608 0.100917,0.20185 0.37778,0.27689 0.478697,0.47871 0.0949,0.18981 -0.09786,1.33824 0,1.4361 0.112832,0.11282 0.365871,-0.11284 0.4787,0 0.23935,0.23935 -0.23935,1.19674 0,1.43611 0.112832,0.11282 0.365868,-0.11284 0.4787,0 0.112832,0.11282 -0.07136,0.33597 0,0.47868 0.100917,0.20186 0.37778,0.27686 0.4787,0.47872 0.07136,0.14271 -0.112831,0.36586 0,0.47868 0.112829,0.11284 0.335979,-0.0714 0.478697,0 1.992234,0.99613 -0.511746,-0.0331 0.478701,0.95739 0.112831,0.11285 0.365868,-0.11281 0.4787,0 0.112831,0.11285 -0.07136,0.336 0,0.47871 0.235526,0.47107 1.67927,1.44376 1.914797,1.91479 0.07136,0.14272 -0.112832,0.36587 0,0.47871 0.112832,0.11282 0.365869,-0.11284 0.4787,0 0.112829,0.11282 -0.112831,0.36587 0,0.47869 0.112829,0.11284 0.365869,-0.11282 0.478697,0 0.112832,0.11284 -0.112828,0.36589 0,0.47871 0.112832,0.11282 0.365872,-0.11282 0.478701,0 0.112831,0.11282 -0.07136,0.33597 0,0.47871 0.996116,1.99223 -0.03305,-0.51176 0.9574,0.47868 0.112829,0.11285 -0.112832,0.36587 0,0.47872 0.112829,0.11281 0.365868,-0.11285 0.4787,0 0.112829,0.11281 -0.112832,0.36586 0,0.47868 0.638265,0.63828 0.478697,-0.79783 0.478697,0.47871"
         style="fill:none;stroke:#000000;stroke-width:0.75;stroke-linecap:butt;stroke-linejoin:miter;stroke-opacity:1;stroke-miterlimit:4;stroke-dasharray:none" />
      <path
         inkscape:connector-curvature="0"
         id="path2779"
         d="m 110,246.99999 c -0.28551,0.39088 -0.63366,0.74297 -0.85654,1.17266 -0.0735,0.14164 0,0.31913 0,0.4787 0,0.15956 0,0.31913 0,0.4787 0,0.9574 0,1.91479 0,2.87219 0,2.8722 0,5.7444 0,8.61659 0,9.73355 0,19.46713 0,29.20067 0,2.71261 0,5.42525 0,8.13789 0,0.1161 0.0154,1.42071 0,1.43608 -0.11283,0.11285 -0.36587,-0.11281 -0.47869,0 -0.22567,0.22567 0.22566,0.73176 0,0.95743 -0.11284,0.11281 -0.36587,-0.11285 -0.4787,0 -0.11284,0.11281 0.0714,0.33596 0,0.47868 -0.10092,0.20185 -0.37778,0.27686 -0.4787,0.47871 -0.14272,0.28543 0.22566,0.73173 0,0.95739 -0.11283,0.11282 -0.36587,-0.11284 -0.4787,0 -0.11283,0.11282 0.0714,0.33597 0,0.47869 -0.10092,0.20185 -0.37778,0.27689 -0.4787,0.47871 -0.0714,0.14272 0.0714,0.33597 0,0.47871 -0.10092,0.20182 -0.37778,0.27686 -0.4787,0.47868 -0.0714,0.14272 0.0714,0.336 0,0.47871 -0.10092,0.20183 -0.37778,0.27686 -0.4787,0.47869 -0.0714,0.14272 0.0714,0.33599 0,0.47871 -0.10092,0.20182 -0.37778,0.27686 -0.4787,0.47868 -0.0714,0.14275 0.0714,0.336 0,0.47871 -0.10092,0.20186 -0.37778,0.27686 -0.4787,0.47872 -0.14272,0.28543 0.14272,0.67193 0,0.95739 -0.10092,0.20182 -0.37778,0.27686 -0.4787,0.47868 -0.0714,0.14275 0.11283,0.36587 0,0.47871 -0.11283,0.11282 -0.36587,-0.11284 -0.4787,0 -0.11283,0.11282 0.0714,0.33597 0,0.47872 -0.10092,0.20182 -0.37778,0.27686 -0.4787,0.47868 -0.14272,0.28543 0.14272,0.67196 0,0.95739 -0.10092,0.20185 -0.37778,0.27686 -0.4787,0.47871 -0.16532,0.33065 0.16803,2.22547 0,2.39351 -0.11283,0.11281 -0.36587,-0.11285 -0.4787,0 -0.11283,0.11281 0.11283,0.36586 0,0.47868 -0.11283,0.11284 -0.36587,-0.11282 -0.4787,0 -0.0979,0.0979 0.0949,1.24629 0,1.4361 -0.10091,0.20186 -0.37778,0.27686 -0.4787,0.47872 -0.14272,0.28543 0.22567,0.73173 0,0.95739 -0.11283,0.11282 -0.36587,-0.11284 -0.47869,0 -0.23935,0.23934 0.23934,1.19674 0,1.43608 -0.11284,0.11284 -0.36588,-0.11282 -0.4787,0 -0.23935,0.23937 0.23935,1.19676 0,1.4361 -0.11284,0.11285 -0.36587,-0.11281 -0.4787,0 -0.225665,0.22567 0.14272,0.67197 0,0.9574 -0.100922,0.20185 -0.377785,0.27686 -0.478705,0.47871 -0.07136,0.14272 0.112832,0.36587 0,0.47868 -0.112829,0.11285 -0.365868,-0.11281 -0.4787,0 -0.239347,0.23937 0.23935,1.19677 0,1.43611 -0.112829,0.11284 -0.365868,-0.11282 -0.478697,0 -0.09786,0.0979 0.0949,1.24629 0,1.4361 -0.10092,0.20183 -0.377783,0.27686 -0.4787,0.47872 -0.142722,0.28543 0.142721,0.67193 0,0.95739 -0.10092,0.20182 -0.37778,0.27686 -0.4787,0.47868 -0.150437,0.30089 0.150436,1.61394 0,1.91482 -0.100918,0.20182 -0.37778,0.27686 -0.4787,0.47868 -0.150998,0.302 0.151,2.09151 0,2.3935 -0.100918,0.20186 -0.37778,0.27686 -0.478698,0.47872 -0.129844,0.25968 0.130982,1.78379 0,1.91478 -0.112831,0.11282 -0.365868,-0.11284 -0.4787,0 -0.09786,0.0979 0.0949,1.2463 0,1.43611 -0.10092,0.20182 -0.37778,0.27686 -0.4787,0.47868 -0.07136,0.14272 0,0.31914 0,0.47871 0,0.15958 0,0.31912 0,0.47869 0,0.79785 0,1.59567 0,2.3935 0,0.15957 0,0.31914 0,0.47871 0,0.15957 0.112832,0.36587 0,0.47868 -0.112829,0.11285 -0.365868,-0.11281 -0.4787,0 -0.168031,0.16804 0.165328,2.06285 0,2.3935 -0.100917,0.20185 -0.37778,0.27686 -0.478697,0.47871 -0.07284,0.14568 0,1.2205 0,1.43611 0,1.27651 0,2.55304 0,3.82958 0,3.19132 0,6.38268 0,9.574 0,1.59565 0,3.19132 0,4.78697 0,0.25033 0.06293,1.78893 0,1.91482 -0.10092,0.20182 -0.377783,0.27686 -0.4787,0.47868 -0.07136,0.14275 0,0.31914 0,0.47871 0,0.15957 0,0.31915 0,0.47869 0,0.79785 0,1.59567 0,2.3935 0,0.15957 0,0.31914 0,0.47871 0,0.15957 0.112831,0.36587 0,0.47871 -0.112832,0.11282 -0.365869,-0.11284 -0.4787,0 -0.0154,0.0154 0,1.31998 0,1.43608 0,0.79785 0,1.59567 0,2.3935 0,0.15957 0.112831,0.36587 0,0.47871 -0.112829,0.11282 -0.365869,-0.11284 -0.4787,0 -0.225661,0.22566 0.142721,0.67196 0,0.95739 -0.100918,0.20183 -0.37778,0.27686 -0.478698,0.47869 -0.142721,0.28546 0.225661,0.73176 0,0.95742 -0.112831,0.11282 -0.365871,-0.11284 -0.4787,0 -0.112831,0.11282 0.07136,0.33597 0,0.47868 -0.201837,0.40368 -0.755563,0.55372 -0.9574,0.9574 -0.07136,0.14272 0.112832,0.36587 0,0.47871 -0.112829,0.11282 -0.365868,-0.11284 -0.478697,0 -0.112832,0.11282 0.07136,0.33597 0,0.47868 -0.10092,0.20185 -0.377783,0.27689 -0.4787,0.47871 -0.142722,0.28544 0.22566,0.73174 0,0.9574 -0.112832,0.11284 -0.365869,-0.11282 -0.4787,0 -0.112832,0.11284 0.112831,0.36587 0,0.47871 -0.112832,0.11282 -0.365869,-0.11284 -0.4787,0 -0.112829,0.11282 0.07136,0.33597 0,0.47868 -0.100918,0.20185 -0.37778,0.27686 -0.478698,0.47871 -0.07136,0.14272 0.07136,0.33597 0,0.47872 -0.201837,0.40367 -0.755562,0.55372 -0.9574,0.95739 -0.07136,0.14272 0.112832,0.36587 0,0.47868 -0.112831,0.11285 -0.365868,-0.11281 -0.4787,0 -0.112829,0.11285 0.112832,0.36587 0,0.47871 -0.112829,0.11282 -0.365868,-0.11284 -0.4787,0 -0.112829,0.11282 0.112832,0.36587 0,0.47869 -0.112829,0.11284 -0.365868,-0.11282 -0.478697,0 -0.112832,0.11284 0.07136,0.33599 0,0.47871 -0.10092,0.20182 -0.377783,0.27686 -0.4787,0.47871 -0.07136,0.14272 0.112831,0.36587 0,0.47868 -0.112832,0.11285 -0.365869,-0.11281 -0.4787,0 -0.112829,0.11285 0.07136,0.336 0,0.47872 -0.201838,0.40367 -0.75556,0.55372 -0.957398,0.95739 -0.07136,0.14272 0.112829,0.36587 0,0.47868 -0.112831,0.11285 -0.365868,-0.11281 -0.4787,0 -0.112831,0.11285 0.07136,0.336 0,0.47871 -0.10092,0.20183 -0.37778,0.27686 -0.4787,0.47872 -0.07136,0.14271 0.07136,0.33596 0,0.47868 -0.100917,0.20185 -0.37778,0.27686 -0.4787,0.47871 -0.07136,0.14272 0.07136,0.33597 0,0.47868 -0.201837,0.40368 -0.75556,0.55372 -0.957397,0.9574 -0.07136,0.14274 0.07136,0.33599 0,0.47871 -0.10092,0.20185 -0.37778,0.27686 -0.4787,0.47871 -0.07136,0.14272 0.07136,0.33597 0,0.47868 -0.201838,0.40368 -0.75556,0.55372 -0.957398,0.9574 -0.142721,0.28546 0.142719,0.67196 0,0.95739 -0.10092,0.20185 -0.377782,0.27689 -0.4787,0.47871 -0.07136,0.14272 0.112829,0.36587 0,0.47872 -0.112831,0.11281 -0.365868,-0.11285 -0.4787,0 -0.112831,0.11281 0.112832,0.36586 0,0.47868 -0.112831,0.11284 -0.365868,-0.11282 -0.4787,0 -0.112829,0.11284 0.07136,0.33599 0,0.47871 -0.201837,0.40367 -0.75556,0.55372 -0.957397,0.95739 -0.07136,0.14272 0.112829,0.36587 0,0.47872 -0.112832,0.11281 -0.335979,-0.0714 -0.4787,0 -1.058432,0.52919 -0.148551,0.2971 -0.4787,0.95739 -0.996117,1.99223 0.03305,-0.51176 -0.957398,0.47868 -0.112831,0.11285 0.112829,0.36587 0,0.47871 -0.112831,0.11282 -0.365868,-0.11284 -0.4787,0 -0.112831,0.11282 0.07136,0.33597 0,0.47869 -0.04581,0.0917 -1.823164,1.86899 -1.914797,1.91482 -0.142722,0.0713 -0.365869,-0.11285 -0.4787,0 -0.990447,0.99044 1.513533,-0.0387 -0.4787,0.95739 -0.142719,0.0714 -0.335979,-0.0714 -0.478698,0 -0.201837,0.10091 -0.276862,0.37777 -0.4787,0.47868 -0.142721,0.0714 -0.335978,-0.0713 -0.4787,0 -0.201837,0.10094 -0.276863,0.3778 -0.4787,0.47871 -0.142719,0.0714 -0.365868,-0.11281 -0.478697,0 -0.112832,0.11282 0.07136,0.33597 0,0.47872 -0.529217,1.05841 -0.297104,0.14853 -0.9574,0.47868 -0.403675,0.20185 -0.553723,0.75557 -0.957398,0.95739 -0.142721,0.0714 -0.335981,-0.0713 -0.4787,0 -1.028861,0.51443 0.07146,0.44297 -0.9574,0.9574 -0.142719,0.0714 -0.335978,-0.0714 -0.478697,0 -0.201838,0.10094 -0.276863,0.3778 -0.4787,0.47871 -0.142722,0.0714 -0.335979,-0.0714 -0.4787,0 -0.201838,0.10091 -0.276863,0.37777 -0.4787,0.47871 -0.142719,0.0714 -0.335979,-0.0714 -0.4787,0 -0.403675,0.20182 -0.553723,0.75554 -0.957398,0.9574 -0.142721,0.0713 -0.335978,-0.0714 -0.4787,0 -0.403675,0.20182 -0.553723,0.75554 -0.957397,0.95739 -0.285443,0.14272 -0.73174,-0.22566 -0.9574,0 -0.112829,0.11282 0.112831,0.36587 0,0.47868 -0.112829,0.11285 -0.335979,-0.0713 -0.4787,0 -0.201838,0.10094 -0.27686,0.3778 -0.478698,0.47871 -0.142721,0.0714 -0.335978,-0.0713 -0.4787,0 -2.190819,1.09541 2.03132,-0.19841 -1.436097,0.9574 -0.285435,0.0951 -2.408402,0 -2.872198,0 -0.332954,0 -2.220383,0.0866 -2.393497,0 -0.201838,-0.10091 -0.276863,-0.37777 -0.4787,-0.47868 -0.142719,-0.0714 -0.365869,0.11281 -0.478698,0 -0.112831,-0.11285 0.112829,-0.36587 0,-0.47872 -0.112831,-0.11281 -0.365868,0.11285 -0.4787,0 -0.112831,-0.11281 0.112832,-0.36586 0,-0.47871 -0.112831,-0.11281 -0.365868,0.11285 -0.4787,0 -0.112829,-0.11281 0.112832,-0.36586 0,-0.47868 -1.276532,0 0.159568,0.15957 -0.4787,-0.47871 -0.112829,-0.11282 -0.365868,0.11284 -0.478697,0 0,-1.27654 0.159565,0.15957 -0.4787,-0.47868 -0.990447,-0.99045 1.513533,0.0387 -0.4787,-0.9574 -0.142722,-0.0714 -0.365869,0.11282 -0.4787,0 -0.112829,-0.11284 0,-0.31914 0,-0.47871 0,-0.15957 0,-0.31914 0,-0.47871 0,-1.27651 0,-2.55304 0,-3.82958 0,-0.22572 0.0217,-2.3718 0,-2.3935 -0.112829,-0.11282 -0.365869,0.11282 -0.478698,0 -0.01926,-0.0193 0,-1.739 0,-1.91479 0,-0.15957 -0.112831,-0.36587 0,-0.47871 0.112829,-0.11282 0.365869,0.11284 0.478698,0 0.112831,-0.11282 -0.07136,-0.33597 0,-0.47868 0.10092,-0.20186 0.377782,-0.27689 0.4787,-0.47872 0.191479,-0.38295 -0.191479,-1.05314 0,-1.4361 0.729911,-1.45981 0.379497,0.87553 0.9574,-1.43611 0.0774,-0.30958 -0.10092,-0.65463 0,-0.95739 0.07136,-0.21408 0.37778,-0.27686 0.478697,-0.47868 0.07136,-0.14272 -0.05046,-0.32732 0,-0.47872 0.112832,-0.33848 0.365871,-0.61891 0.4787,-0.95739 0.10092,-0.30276 -0.100917,-0.65463 0,-0.9574 0.112832,-0.3385 0.365869,-0.61891 0.4787,-0.95739 0.05046,-0.15139 -0.05046,-0.32732 0,-0.47871 0.112832,-0.33848 0.365869,-0.61891 0.4787,-0.9574 0.05046,-0.15136 -0.07136,-0.33596 0,-0.47871 0.100918,-0.20182 0.407339,-0.26461 0.478698,-0.47868 0.10092,-0.30276 -0.100918,-0.65466 0,-0.95739 0.07136,-0.21411 0.377782,-0.27686 0.4787,-0.47872 0.07136,-0.14271 -0.05046,-0.32731 0,-0.47868 0.112831,-0.33851 0.365868,-0.61891 0.4787,-0.95742 0.100917,-0.30274 -0.225661,-0.73173 0,-0.9574 0.112831,-0.11281 0.365868,0.11285 0.4787,0 0.112829,-0.11281 -0.07136,-0.33596 0,-0.47868 0.100917,-0.20185 0.37778,-0.27686 0.478697,-0.47871 0.07136,-0.14272 -0.07136,-0.33597 0,-0.47868 0.10092,-0.20186 0.377783,-0.27689 0.4787,-0.47872 0.142722,-0.28543 -0.22566,-0.73173 0,-0.95739 0.112832,-0.11284 0.365869,0.11282 0.4787,0 0.112832,-0.11284 -0.112831,-0.36587 0,-0.47871 0.112832,-0.11282 0.365869,0.11284 0.4787,0 0.112829,-0.11282 -0.07136,-0.33597 0,-0.47868 1.016,-2.032 -0.0586,1.07457 0.957398,-0.95743 0.07136,-0.14271 -0.07136,-0.33596 0,-0.47868 0.10092,-0.20185 0.377782,-0.27686 0.4787,-0.47871 0.07136,-0.14272 -0.07136,-0.33597 0,-0.47868 0.10092,-0.20186 0.37778,-0.27686 0.4787,-0.47872 0.07136,-0.14271 -0.07136,-0.33596 0,-0.47868 0.100917,-0.20185 0.37778,-0.27686 0.4787,-0.47871 0.07136,-0.14272 -0.07136,-0.33597 0,-0.47871 0.100917,-0.20183 0.37778,-0.27686 0.478697,-0.47869 0.589508,-1.179 -1.389536,0.43215 0.4787,-1.4361 0.112832,-0.11282 0.365869,0.11284 0.4787,0 0.112829,-0.11282 -0.07136,-0.33597 0,-0.47868 0.100917,-0.20186 0.407339,-0.26464 0.4787,-0.47872 0.100918,-0.30276 -0.10092,-0.65463 0,-0.95739 0.07136,-0.21407 0.37778,-0.27686 0.478698,-0.47871 0.07136,-0.14272 -0.07136,-0.33597 0,-0.47868 0.201837,-0.40368 0.755562,-0.55372 0.9574,-0.9574 0.07136,-0.14274 -0.07136,-0.33599 0,-0.47871 0.100917,-0.20185 0.37778,-0.27686 0.4787,-0.47871 0.142719,-0.28543 -0.142722,-0.67194 0,-0.9574 0.100917,-0.20182 0.37778,-0.27686 0.478697,-0.47868 0.07136,-0.14274 -0.07136,-0.33599 0,-0.47871 0.201837,-0.40368 0.755563,-0.55372 0.9574,-0.9574 0.07136,-0.14271 0,-0.31914 0,-0.47871 0.159568,-0.31911 0.280781,-0.6605 0.4787,-0.95739 0.159565,-0.15957 0.319133,-0.31914 0.478698,-0.47868 0.159567,0 0.365871,0.11281 0.4787,0 0.112831,-0.11285 -0.07136,-0.336 0,-0.47872 0.04582,-0.0916 1.823164,-1.86899 1.914797,-1.91478 0.142722,-0.0714 0.335979,0.0713 0.4787,0 0.201837,-0.10094 0.319133,-0.31915 0.4787,-0.47872 0.159565,-0.15957 0.319133,-0.31914 0.4787,-0.47868 0.373904,-0.37391 1.023027,-1.16073 1.436098,-1.43611 -0.05452,-0.90685 1.116965,-0.31914 1.436097,-0.47871 0.201837,-0.10091 0.276863,-0.37777 0.4787,-0.47868 0.142722,-0.0714 0.335979,0.0714 0.4787,0 0.201838,-0.10094 0.27686,-0.3778 0.478698,-0.47871 0.142721,-0.0714 0.365871,0.11284 0.4787,0 0.112831,-0.11282 -0.112829,-0.36587 0,-0.47868 0.112831,-0.11285 0.335978,0.0713 0.4787,0 0.201837,-0.10094 0.276862,-0.3778 0.4787,-0.47872 0.142719,-0.0713 0.335978,0.0714 0.478697,0 0.201837,-0.10091 0.276863,-0.37777 0.4787,-0.47871 0.285441,-0.14271 0.671957,0.14275 0.9574,0 0.201838,-0.10091 0.27686,-0.37777 0.478698,-0.47868 0.142721,-0.0714 0.319135,0 0.4787,0 0.159567,0 0.319132,0 0.4787,0 0.9574,0 1.914797,0 2.872197,0 0.225706,0 2.371802,-0.0217 2.393495,0 0.112832,0.11282 -0.112829,0.36587 0,0.47868 0.112832,0.11285 0.365871,-0.11281 0.4787,0 0.112832,0.11285 -0.112829,0.3659 0,0.47871 0.112832,0.11282 0.319133,0 0.4787,0 0,0.15957 -0.112831,0.36587 0,0.47872 0.112832,0.11281 0.365869,-0.11285 0.4787,0 0.112829,0.11281 -0.112831,0.36586 0,0.47868 0.112829,0.11284 0.335979,-0.0714 0.478698,0 0.201837,0.10091 0.319135,0.31914 0.4787,0.47871 0.159567,0.15957 0.37778,0.27686 0.4787,0.47868 0.07284,0.14568 0,1.22053 0,1.43611 0,0.95739 0,1.91479 0,2.87218 0,1.27654 0,2.55307 0,3.82961 0,0.15957 0,0.31914 0,0.47871 0,0.15957 0.112831,0.36587 0,0.47868 -0.112832,0.11285 -0.365869,-0.11281 -0.4787,0 -0.23935,0.23937 0.23935,1.19677 0,1.43611 -0.112829,0.11282 -0.365869,-0.11285 -0.4787,0 -0.112829,0.11282 0,0.31914 0,0.47871 -0.159565,0 -0.365869,-0.11284 -0.478698,0 -0.112831,0.11282 0.112829,0.36587 0,0.47868 -0.112831,0.11285 -0.365868,-0.11281 -0.4787,0 -0.112831,0.11285 0.07136,0.336 0,0.47872 -0.10092,0.20182 -0.37778,0.27686 -0.4787,0.47868 -0.07136,0.14272 0.112832,0.36587 0,0.47871 -0.112829,0.11282 -0.365868,-0.11284 -0.4787,0 -0.112829,0.11282 0.07136,0.33597 0,0.47868 -0.100917,0.20185 -0.37778,0.27686 -0.478697,0.47871 -0.07136,0.14272 0.112829,0.36587 0,0.47872 -0.112832,0.11281 -0.365871,-0.11285 -0.4787,0 -0.112832,0.11281 0.07136,0.33596 0,0.47868 -0.10092,0.20185 -0.37778,0.27686 -0.4787,0.47871 -0.07136,0.14272 0.07136,0.33597 0,0.47868 -1.587646,1.58766 0.22566,-0.45132 -0.4787,0.9574 -0.100918,0.20185 -0.37778,0.27689 -0.478698,0.47871 -0.07136,0.14272 0.07136,0.33597 0,0.47871 -0.110839,0.22167 -1.633254,1.63325 -1.914797,1.91479 -0.159568,0.15957 -0.377783,0.27686 -0.4787,0.47868 -0.07136,0.14275 0.07136,0.336 0,0.47871 -0.257215,0.51443 -0.700186,0.44297 -0.9574,0.9574 -0.07136,0.14272 0.112831,0.36587 0,0.47871 -0.112829,0.11282 -0.365869,-0.11284 -0.4787,0 -0.112829,0.11282 0.07136,0.33597 0,0.47868 -0.100918,0.20185 -0.37778,0.27686 -0.478698,0.47871 -0.07136,0.14272 0.07136,0.33597 0,0.47872 -0.201837,0.40367 -0.755563,0.55372 -0.9574,0.95739 -0.07136,0.14272 0.07136,0.33597 0,0.47868 -0.201837,0.40368 -0.75556,0.55372 -0.957397,0.9574 -0.07136,0.14274 0.07136,0.33599 0,0.47871 -0.201838,0.40367 -0.755563,0.55372 -0.9574,0.95739 -0.07136,0.14272 0.07136,0.336 0,0.47872 -0.100918,0.20182 -0.37778,0.27686 -0.4787,0.47868 -0.142719,0.28546 0.225663,0.73173 0,0.95739 -0.112829,0.11285 -0.365869,-0.11281 -0.478698,0 -0.112831,0.11285 0.112829,0.3659 0,0.47871 -0.112831,0.11282 -0.365868,-0.11281 -0.4787,0 -0.112831,0.11282 0.112832,0.36587 0,0.47872 -0.112831,0.11281 -0.365868,-0.11285 -0.4787,0 -0.112829,0.11281 0.112832,0.36586 0,0.47868 -0.112829,0.11284 -0.365868,-0.11282 -0.4787,0 -0.112829,0.11284 0.112832,0.36587 0,0.47871 -0.112829,0.11282 -0.365868,-0.11284 -0.478697,0 -0.112832,0.11282 0.112829,0.36587 0,0.47868 -0.112832,0.11285 -0.365871,-0.11281 -0.4787,0 -0.112832,0.11285 0.112829,0.36587 0,0.47871 -0.112832,0.11282 -0.365869,-0.11284 -0.4787,0 -0.112832,0.11282 0.112831,0.36587 0,0.47869 -0.112832,0.11284 -0.365869,-0.11282 -0.4787,0 -0.112829,0.11284 0.112831,0.36589 0,0.47871 -0.112829,0.11282 -0.335979,-0.0714 -0.478698,0 -1.992233,0.99613 0.511747,-0.0331 -0.4787,0.95739 -0.112831,0.11285 -0.335978,-0.0713 -0.4787,0 -0.201837,0.10092 -0.276863,0.3778 -0.4787,0.47872 -1.408721,0.70434 0.630248,-1.10895 -0.957397,0.47868 -0.359545,0.35954 -0.9574,1.05905 -0.9574,0.47871 0,-0.15957 0.319132,0 0.4787,0"
         style="fill:none;stroke:#000000;stroke-width:0.75;stroke-linecap:butt;stroke-linejoin:miter;stroke-opacity:1;stroke-miterlimit:4;stroke-dasharray:none" />
    </g>
  </g>
</svg>
