<?xml version="1.0" encoding="UTF-8" standalone="no"?>
<!-- Created with Inkscape (http://www.inkscape.org/) -->

<svg
   xmlns:dc="http://purl.org/dc/elements/1.1/"
   xmlns:cc="http://creativecommons.org/ns#"
   xmlns:rdf="http://www.w3.org/1999/02/22-rdf-syntax-ns#"
   xmlns:svg="http://www.w3.org/2000/svg"
   xmlns="http://www.w3.org/2000/svg"
   xmlns:sodipodi="http://sodipodi.sourceforge.net/DTD/sodipodi-0.dtd"
   xmlns:inkscape="http://www.inkscape.org/namespaces/inkscape"
   width="210mm"
   height="297mm"
   viewBox="0 0 210 297"
   version="1.1"
   id="svg8"
   inkscape:version="0.92.3 (2405546, 2018-03-11)"
   sodipodi:docname="slope_flow_area.svg"
   inkscape:export-filename="/home/paul/Documents/Geneva/teaching/modeling_volcanic_processes/lecture5/slope_flow_vol.png"
   inkscape:export-xdpi="300"
   inkscape:export-ydpi="300">
  <defs
     id="defs2">
    <marker
       inkscape:stockid="Arrow1Lstart"
       orient="auto"
       refY="0.0"
       refX="0.0"
       id="marker2996"
       style="overflow:visible"
       inkscape:isstock="true">
      <path
         id="path2994"
         d="M 0.0,0.0 L 5.0,-5.0 L -12.5,0.0 L 5.0,5.0 L 0.0,0.0 z "
         style="fill-rule:evenodd;stroke:#ff0000;stroke-width:1pt;stroke-opacity:1;fill:#ff0000;fill-opacity:1"
         transform="scale(0.8) translate(12.5,0)" />
    </marker>
    <marker
       inkscape:stockid="Arrow1Lend"
       orient="auto"
       refY="0.0"
       refX="0.0"
       id="marker2992"
       style="overflow:visible;"
       inkscape:isstock="true">
      <path
         id="path2990"
         d="M 0.0,0.0 L 5.0,-5.0 L -12.5,0.0 L 5.0,5.0 L 0.0,0.0 z "
         style="fill-rule:evenodd;stroke:#ff0000;stroke-width:1pt;stroke-opacity:1;fill:#ff0000;fill-opacity:1"
         transform="scale(0.8) rotate(180) translate(12.5,0)" />
    </marker>
    <marker
       inkscape:stockid="Arrow1Lend"
       orient="auto"
       refY="0.0"
       refX="0.0"
       id="marker2988"
       style="overflow:visible;"
       inkscape:isstock="true">
      <path
         id="path2986"
         d="M 0.0,0.0 L 5.0,-5.0 L -12.5,0.0 L 5.0,5.0 L 0.0,0.0 z "
         style="fill-rule:evenodd;stroke:#ff0000;stroke-width:1pt;stroke-opacity:1;fill:#ff0000;fill-opacity:1"
         transform="scale(0.8) rotate(180) translate(12.5,0)" />
    </marker>
    <marker
       inkscape:stockid="Arrow1Lend"
       orient="auto"
       refY="0.0"
       refX="0.0"
       id="Arrow1Lend"
       style="overflow:visible;"
       inkscape:isstock="true">
      <path
         id="path846"
         d="M 0.0,0.0 L 5.0,-5.0 L -12.5,0.0 L 5.0,5.0 L 0.0,0.0 z "
         style="fill-rule:evenodd;stroke:#ff0000;stroke-width:1pt;stroke-opacity:1;fill:#ff0000;fill-opacity:1"
         transform="scale(0.8) rotate(180) translate(12.5,0)" />
    </marker>
    <marker
       inkscape:stockid="Arrow1Lend"
       orient="auto"
       refY="0.0"
       refX="0.0"
       id="marker1327"
       style="overflow:visible;"
       inkscape:isstock="true">
      <path
         id="path1325"
         d="M 0.0,0.0 L 5.0,-5.0 L -12.5,0.0 L 5.0,5.0 L 0.0,0.0 z "
         style="fill-rule:evenodd;stroke:#000000;stroke-width:1pt;stroke-opacity:1;fill:#000000;fill-opacity:1"
         transform="scale(0.8) rotate(180) translate(12.5,0)" />
    </marker>
    <marker
       inkscape:stockid="Arrow1Lstart"
       orient="auto"
       refY="0.0"
       refX="0.0"
       id="Arrow1Lstart"
       style="overflow:visible"
       inkscape:isstock="true">
      <path
         id="path843"
         d="M 0.0,0.0 L 5.0,-5.0 L -12.5,0.0 L 5.0,5.0 L 0.0,0.0 z "
         style="fill-rule:evenodd;stroke:#000000;stroke-width:1pt;stroke-opacity:1;fill:#000000;fill-opacity:1"
         transform="scale(0.8) translate(12.5,0)" />
    </marker>
  </defs>
  <sodipodi:namedview
     id="base"
     pagecolor="#ffffff"
     bordercolor="#666666"
     borderopacity="1.0"
     inkscape:pageopacity="0.0"
     inkscape:pageshadow="2"
     inkscape:zoom="1.2707111"
     inkscape:cx="167.79261"
     inkscape:cy="101.60002"
     inkscape:document-units="mm"
     inkscape:current-layer="layer1"
     showgrid="false"
     showguides="true"
     inkscape:guide-bbox="true"
     inkscape:window-width="1853"
     inkscape:window-height="1025"
     inkscape:window-x="67"
     inkscape:window-y="27"
     inkscape:window-maximized="1">
    <sodipodi:guide
       position="0,393.8512"
       orientation="1,0"
       id="guide815"
       inkscape:locked="false"
       inkscape:label=""
       inkscape:color="rgb(0,0,255)" />
    <sodipodi:guide
       position="100,274.41072"
       orientation="1,0"
       id="guide817"
       inkscape:locked="false"
       inkscape:label=""
       inkscape:color="rgb(0,0,255)" />
    <sodipodi:guide
       position="-177.64881,0"
       orientation="0,1"
       id="guide819"
       inkscape:locked="false"
       inkscape:label=""
       inkscape:color="rgb(0,0,255)" />
    <sodipodi:guide
       position="45,61.542756"
       orientation="0,1"
       id="guide821"
       inkscape:locked="false"
       inkscape:label=""
       inkscape:color="rgb(0,0,255)" />
    <sodipodi:guide
       position="-223.7619,87"
       orientation="0,1"
       id="guide825"
       inkscape:locked="false"
       inkscape:label=""
       inkscape:color="rgb(0,0,255)" />
    <sodipodi:guide
       position="33.863239,15.753768"
       orientation="0,1"
       id="guide827"
       inkscape:locked="false"
       inkscape:label=""
       inkscape:color="rgb(0,0,255)" />
    <sodipodi:guide
       position="151.9,185.96429"
       orientation="1,0"
       id="guide831"
       inkscape:locked="false"
       inkscape:label=""
       inkscape:color="rgb(0,0,255)" />
    <sodipodi:guide
       position="10,65.484169"
       orientation="1,0"
       id="guide839"
       inkscape:locked="false"
       inkscape:label=""
       inkscape:color="rgb(0,0,255)" />
    <sodipodi:guide
       position="40,49.764239"
       orientation="1,0"
       id="guide1205"
       inkscape:locked="false"
       inkscape:label=""
       inkscape:color="rgb(0,0,255)" />
    <sodipodi:guide
       position="45,38.280184"
       orientation="1,0"
       id="guide1207"
       inkscape:locked="false"
       inkscape:label=""
       inkscape:color="rgb(0,0,255)" />
    <sodipodi:guide
       position="42.5,76.413136"
       orientation="1,0"
       id="guide2952"
       inkscape:locked="false"
       inkscape:label=""
       inkscape:color="rgb(0,0,255)" />
    <sodipodi:guide
       position="53.511702,26.651744"
       orientation="0,1"
       id="guide2956"
       inkscape:locked="false" />
    <sodipodi:guide
       position="73.468503,45.052832"
       orientation="0,1"
       id="guide3131"
       inkscape:locked="false" />
    <sodipodi:guide
       position="27.773916,41.666501"
       orientation="0,1"
       id="guide3135"
       inkscape:locked="false" />
  </sodipodi:namedview>
  <metadata
     id="metadata5">
    <rdf:RDF>
      <cc:Work
         rdf:about="">
        <dc:format>image/svg+xml</dc:format>
        <dc:type
           rdf:resource="http://purl.org/dc/dcmitype/StillImage" />
        <dc:title></dc:title>
      </cc:Work>
    </rdf:RDF>
  </metadata>
  <g
     inkscape:label="Layer 1"
     inkscape:groupmode="layer"
     id="layer1">
    <path
       style="fill:none;stroke:#000000;stroke-width:0;stroke-linecap:butt;stroke-linejoin:miter;stroke-miterlimit:4;stroke-dasharray:none;stroke-opacity:1"
       d="m 0,210 99.999997,57.00001"
       id="path835"
       inkscape:connector-curvature="0"
       inkscape:export-filename="/home/paul/Documents/Geneva/teaching/modeling_volcanic_processes/lecture5/slope_flow.png"
       inkscape:export-xdpi="300"
       inkscape:export-ydpi="300" />
    <g
       id="g3207"
       inkscape:export-xdpi="300"
       inkscape:export-ydpi="300">
      <path
         inkscape:export-ydpi="300"
         inkscape:export-xdpi="300"
         inkscape:export-filename="/home/paul/Documents/Geneva/teaching/modeling_volcanic_processes/lecture5/slope_flow.png"
         inkscape:connector-curvature="0"
         id="path823"
         d="M 73.327719,281.24623 0,239.3"
         style="fill:none;stroke:#000000;stroke-width:0.73011732;stroke-linecap:butt;stroke-linejoin:miter;stroke-miterlimit:4;stroke-dasharray:none;stroke-opacity:1" />
      <path
         inkscape:export-ydpi="300"
         inkscape:export-xdpi="300"
         inkscape:export-filename="/home/paul/Documents/Geneva/teaching/modeling_volcanic_processes/lecture5/slope_flow.png"
         inkscape:connector-curvature="0"
         id="path837"
         d="m 0,210 73.468503,41.94717"
         style="fill:none;stroke:#000000;stroke-width:0.73529983;stroke-linecap:butt;stroke-linejoin:miter;stroke-miterlimit:4;stroke-dasharray:none;stroke-opacity:1" />
      <path
         inkscape:export-ydpi="300"
         inkscape:export-xdpi="300"
         inkscape:export-filename="/home/paul/Documents/Geneva/teaching/modeling_volcanic_processes/lecture5/slope_flow.png"
         inkscape:connector-curvature="0"
         id="path1177"
         d="M 73.327719,281.24623 H 0"
         style="fill:none;stroke:#000000;stroke-width:0.4513182;stroke-linecap:butt;stroke-linejoin:miter;stroke-miterlimit:4;stroke-dasharray:none;stroke-opacity:1" />
      <path
         inkscape:export-ydpi="300"
         inkscape:export-xdpi="300"
         inkscape:export-filename="/home/paul/Documents/Geneva/teaching/modeling_volcanic_processes/lecture5/slope_flow.png"
         inkscape:connector-curvature="0"
         id="path1179"
         d="m 62.195604,281.24623 c 0.06941,-0.20823 0.138811,-0.41643 0.208216,-0.62465 0.0347,0 0.07957,0.0246 0.104109,0 0.04908,-0.0491 -0.03104,-0.14613 0,-0.20823 0.02193,-0.0439 0.08216,-0.0602 0.104108,-0.10409 0.03104,-0.0621 -0.03104,-0.14615 0,-0.20823 0.02193,-0.0439 0.08216,-0.0602 0.104108,-0.10411 0.03104,-0.0621 -0.03104,-0.14613 0,-0.2082 0.02193,-0.0439 0.08216,-0.0602 0.104108,-0.10411 0.01553,-0.031 -0.01553,-0.0731 0,-0.10412 0.02193,-0.0439 0.08216,-0.0602 0.104109,-0.10411 0.03104,-0.0621 -0.04908,-0.15915 0,-0.2082 0.02455,-0.0246 0.07957,0.0246 0.104108,0 0.02455,-0.0246 -0.02453,-0.0796 0,-0.10411 0.04908,-0.0491 0.159139,0.0491 0.208216,0 0.02453,-0.0246 -0.01553,-0.0731 0,-0.10412 0.216639,-0.43328 -0.0072,0.11129 0.208217,-0.10411 0.02455,-0.0246 -0.02453,-0.0796 0,-0.10412 0.02455,-0.0246 0.07957,0.0246 0.104108,0 0.02455,-0.0246 -0.02453,-0.0796 0,-0.10408 0.04908,-0.0491 0.14614,0.031 0.208219,0 0.433274,-0.21664 -0.111297,0.007 0.104108,-0.20823 0.02453,-0.0246 0.07307,0.0156 0.104109,0 0.08779,-0.0439 0.120425,-0.16433 0.208216,-0.20823 0.03104,-0.0156 0.07957,0.0246 0.104108,0 0.02453,-0.0246 -0.02453,-0.0796 0,-0.10408 0.02453,-0.0246 0.07957,0.0246 0.104109,0 0.02453,-0.0246 -0.02453,-0.0796 0,-0.10412 0.02453,-0.0246 0.07307,0.0156 0.104108,0 0.04389,-0.022 0.06021,-0.0822 0.104108,-0.10411 0.03104,-0.0156 0.07957,0.0246 0.104108,0 0.02453,-0.0246 -0.02453,-0.0796 0,-0.10411 0.02453,-0.0246 0.07957,0.0246 0.104109,0 0.02453,-0.0246 -0.02453,-0.0796 0,-0.10412 0.0694,-0.0694 0.138819,0.0694 0.208216,0 0.02455,-0.0246 -0.02453,-0.0796 0,-0.10411 0.04908,-0.0491 0.14614,0.0311 0.208217,0 0.08779,-0.0439 0.120425,-0.16431 0.208216,-0.2082 0.03104,-0.0156 0.07957,0.0246 0.104108,0 0.02455,-0.0246 -0.02453,-0.0796 0,-0.10412 0.04908,-0.0491 0.14614,0.031 0.208217,0 0.0439,-0.022 0.06021,-0.0822 0.104111,-0.10411 0.143602,-0.0718 0.09312,0.1261 0.208216,-0.10411 0.01553,-0.031 -0.02455,-0.0796 0,-0.10409 0.04908,-0.0491 0.159139,0.0491 0.208217,0 0.02453,-0.0246 -0.02453,-0.0796 0,-0.10411 0.02453,-0.0246 0.07307,0.0156 0.104108,0 0.04389,-0.022 0.06021,-0.0822 0.104108,-0.10412 0.03104,-0.0156 0.06941,0 0.104109,0 0.0347,0 0.06941,0 0.104108,0"
         style="fill:none;stroke:#000000;stroke-width:0.5;stroke-linecap:butt;stroke-linejoin:miter;stroke-miterlimit:4;stroke-dasharray:none;stroke-opacity:1" />
      <flowRoot
         inkscape:export-ydpi="300"
         inkscape:export-xdpi="300"
         inkscape:export-filename="/home/paul/Documents/Geneva/teaching/modeling_volcanic_processes/lecture5/slope_flow.png"
         transform="matrix(0.26458333,0,0,0.26458333,64.432393,52.923812)"
         style="font-style:normal;font-weight:normal;font-size:26.66666794px;line-height:1.25;font-family:sans-serif;letter-spacing:0px;word-spacing:0px;fill:#000000;fill-opacity:1;stroke:none"
         id="flowRoot1169-0"
         xml:space="preserve"><flowRegion
           style="font-size:26.66666794px"
           id="flowRegion1171-9"><rect
             style="font-size:26.66666794px"
             y="836.06592"
             x="-31.084957"
             height="47.611137"
             width="51.54594"
             id="rect1173-2" /></flowRegion><flowPara
           style="font-style:italic;font-variant:normal;font-weight:normal;font-stretch:normal;font-size:26.66666794px;font-family:sans-serif;-inkscape-font-specification:'sans-serif Italic'"
           id="flowPara1175-5">θ</flowPara></flowRoot>      <path
         inkscape:connector-curvature="0"
         id="path1251"
         d="m 22.773917,222.6481 v 29.29906 l 5,3.38634 v -29.74077 z"
         style="fill:none;stroke:#000000;stroke-width:0.26458332px;stroke-linecap:butt;stroke-linejoin:miter;stroke-opacity:1" />
      <path
         inkscape:connector-curvature="0"
         id="path1845"
         d="m 26.14613,254.39488 c -0.895279,-0.51622 -1.989727,-1.16929 -2.432107,-1.45124 l -0.804327,-0.51265 v -14.59231 c 0,-8.02577 0.05672,-14.5694 0.126036,-14.54137 0.555738,0.22463 4.703078,2.65658 4.753385,2.78732 0.03544,0.0921 0.04652,6.71077 0.02462,14.70815 l -0.03982,14.54072 z"
         style="opacity:1;fill:#ff0000;fill-opacity:1;stroke:#ff0000;stroke-width:0.29031301;stroke-miterlimit:4;stroke-dasharray:none;stroke-dashoffset:0;stroke-opacity:1" />
      <path
         inkscape:connector-curvature="0"
         id="path3133"
         d="m 9.9999997,215.72822 v 28.85737 l 12.7739173,7.36157 V 222.6481 Z"
         style="fill:#ff0000;stroke:none;stroke-width:0.26458332px;stroke-linecap:butt;stroke-linejoin:miter;stroke-opacity:1;fill-opacity:1" />
      <path
         inkscape:connector-curvature="0"
         id="path3137"
         d="M 27.773915,255.3335 H 9.9999997"
         style="fill:none;stroke:#000000;stroke-width:0.5;stroke-linecap:butt;stroke-linejoin:miter;stroke-opacity:1;stroke-miterlimit:4;stroke-dasharray:0.5,1;stroke-dashoffset:0" />
      <flowRoot
         inkscape:export-ydpi="300"
         inkscape:export-xdpi="300"
         inkscape:export-filename="/home/paul/Documents/Geneva/teaching/modeling_volcanic_processes/lecture5/slope_flow.png"
         transform="matrix(0.26458333,0,0,0.26458333,25.203475,35.555843)"
         style="font-style:normal;font-weight:normal;font-size:26.66666794px;line-height:1.25;font-family:sans-serif;letter-spacing:0px;word-spacing:0px;fill:#000000;fill-opacity:1;stroke:none"
         id="flowRoot1169-0-8"
         xml:space="preserve"><flowRegion
           style="font-size:26.66666794px"
           id="flowRegion1171-9-6"><rect
             style="font-size:26.66666794px"
             y="836.06592"
             x="-31.084957"
             height="47.611137"
             width="51.54594"
             id="rect1173-2-2" /></flowRegion><flowPara
           style="font-style:italic;font-variant:normal;font-weight:normal;font-stretch:normal;font-size:26.66666794px;font-family:sans-serif;-inkscape-font-specification:'sans-serif Italic'"
           id="flowPara1175-5-8">x'</flowPara></flowRoot>      <flowRoot
         inkscape:export-ydpi="300"
         inkscape:export-xdpi="300"
         inkscape:export-filename="/home/paul/Documents/Geneva/teaching/modeling_volcanic_processes/lecture5/slope_flow.png"
         transform="matrix(0.26458333,0,0,0.26458333,26.94426,20.589001)"
         style="font-style:normal;font-weight:normal;font-size:26.66666794px;line-height:1.25;font-family:sans-serif;letter-spacing:0px;word-spacing:0px;fill:#000000;fill-opacity:1;stroke:none"
         id="flowRoot1169-0-8-4"
         xml:space="preserve"><flowRegion
           style="font-size:26.66666794px"
           id="flowRegion1171-9-6-7"><rect
             style="font-size:26.66666794px"
             y="836.06592"
             x="-31.084957"
             height="47.611137"
             width="51.54594"
             id="rect1173-2-2-2" /></flowRegion><flowPara
           style="font-style:italic;font-variant:normal;font-weight:normal;font-stretch:normal;font-size:26.66666794px;font-family:sans-serif;-inkscape-font-specification:'sans-serif Italic'"
           id="flowPara1175-5-8-4">x</flowPara></flowRoot>    </g>
  </g>
</svg>
